<svg xmlns="http://www.w3.org/2000/svg" xmlns:xlink="http://www.w3.org/1999/xlink" width="500" zoomAndPan="magnify" viewBox="0 0 375 374.999991" height="500" preserveAspectRatio="xMidYMid meet" version="1.0"><defs><filter x="0%" y="0%" width="100%" height="100%" id="1ea9d2a2b2"><feColorMatrix values="0 0 0 0 1 0 0 0 0 1 0 0 0 0 1 0 0 0 1 0" color-interpolation-filters="sRGB"/></filter><mask id="dd933020a3"><g filter="url(#1ea9d2a2b2)"><rect x="-37.5" width="450" fill="#000000" y="-37.499999" height="449.999989" fill-opacity="0.5"/></g></mask><clipPath id="c07d4058f2"><path d="M 0.613281 0.699219 L 22.363281 0.699219 L 22.363281 22.449219 L 0.613281 22.449219 Z M 0.613281 0.699219 " clip-rule="nonzero"/></clipPath><clipPath id="672f541c75"><path d="M 11.488281 0.699219 C 5.484375 0.699219 0.613281 5.570312 0.613281 11.574219 C 0.613281 17.582031 5.484375 22.449219 11.488281 22.449219 C 17.496094 22.449219 22.363281 17.582031 22.363281 11.574219 C 22.363281 5.570312 17.496094 0.699219 11.488281 0.699219 Z M 11.488281 0.699219 " clip-rule="nonzero"/></clipPath><clipPath id="f401e00efa"><rect x="0" width="23" y="0" height="23"/></clipPath><mask id="b18519fe62"><g filter="url(#1ea9d2a2b2)"><rect x="-37.5" width="450" fill="#000000" y="-37.499999" height="449.999989" fill-opacity="0.5"/></g></mask><clipPath id="7353efde36"><path d="M 0.707031 0.542969 L 22.457031 0.542969 L 22.457031 22.292969 L 0.707031 22.292969 Z M 0.707031 0.542969 " clip-rule="nonzero"/></clipPath><clipPath id="afa885be37"><path d="M 11.582031 0.542969 C 5.578125 0.542969 0.707031 5.410156 0.707031 11.417969 C 0.707031 17.425781 5.578125 22.292969 11.582031 22.292969 C 17.589844 22.292969 22.457031 17.425781 22.457031 11.417969 C 22.457031 5.410156 17.589844 0.542969 11.582031 0.542969 Z M 11.582031 0.542969 " clip-rule="nonzero"/></clipPath><clipPath id="d7bb22753b"><rect x="0" width="23" y="0" height="23"/></clipPath><mask id="bf1eff26f8"><g filter="url(#1ea9d2a2b2)"><rect x="-37.5" width="450" fill="#000000" y="-37.499999" height="449.999989" fill-opacity="0.6"/></g></mask><clipPath id="761e8ba258"><path d="M 0.957031 0.652344 L 22.558594 0.652344 L 22.558594 22.253906 L 0.957031 22.253906 Z M 0.957031 0.652344 " clip-rule="nonzero"/></clipPath><clipPath id="387df1209d"><path d="M 11.757812 0.652344 C 5.792969 0.652344 0.957031 5.488281 0.957031 11.453125 C 0.957031 17.417969 5.792969 22.253906 11.757812 22.253906 C 17.722656 22.253906 22.558594 17.417969 22.558594 11.453125 C 22.558594 5.488281 17.722656 0.652344 11.757812 0.652344 Z M 11.757812 0.652344 " clip-rule="nonzero"/></clipPath><clipPath id="9e46f00c71"><rect x="0" width="23" y="0" height="23"/></clipPath><mask id="43380cec94"><g filter="url(#1ea9d2a2b2)"><rect x="-37.5" width="450" fill="#000000" y="-37.499999" height="449.999989" fill-opacity="0.6"/></g></mask><clipPath id="e445f0dfa9"><path d="M 0.964844 0.804688 L 22.566406 0.804688 L 22.566406 22.40625 L 0.964844 22.40625 Z M 0.964844 0.804688 " clip-rule="nonzero"/></clipPath><clipPath id="2762e2e72c"><path d="M 11.765625 0.804688 C 5.800781 0.804688 0.964844 5.640625 0.964844 11.605469 C 0.964844 17.570312 5.800781 22.40625 11.765625 22.40625 C 17.730469 22.40625 22.566406 17.570312 22.566406 11.605469 C 22.566406 5.640625 17.730469 0.804688 11.765625 0.804688 Z M 11.765625 0.804688 " clip-rule="nonzero"/></clipPath><clipPath id="c86fc1b898"><rect x="0" width="23" y="0" height="23"/></clipPath><mask id="cc58e96266"><g filter="url(#1ea9d2a2b2)"><rect x="-37.5" width="450" fill="#000000" y="-37.499999" height="449.999989" fill-opacity="0.7"/></g></mask><clipPath id="e981ca6c87"><path d="M 0.914062 0.714844 L 21.164062 0.714844 L 21.164062 20.964844 L 0.914062 20.964844 Z M 0.914062 0.714844 " clip-rule="nonzero"/></clipPath><clipPath id="26d713be5a"><path d="M 11.039062 0.714844 C 5.445312 0.714844 0.914062 5.246094 0.914062 10.839844 C 0.914062 16.429688 5.445312 20.964844 11.039062 20.964844 C 16.628906 20.964844 21.164062 16.429688 21.164062 10.839844 C 21.164062 5.246094 16.628906 0.714844 11.039062 0.714844 Z M 11.039062 0.714844 " clip-rule="nonzero"/></clipPath><clipPath id="3b97463f3c"><rect x="0" width="22" y="0" height="22"/></clipPath><mask id="66143867dd"><g filter="url(#1ea9d2a2b2)"><rect x="-37.5" width="450" fill="#000000" y="-37.499999" height="449.999989" fill-opacity="0.7"/></g></mask><clipPath id="6b45e31f7c"><path d="M 0.578125 0.605469 L 20.828125 0.605469 L 20.828125 20.855469 L 0.578125 20.855469 Z M 0.578125 0.605469 " clip-rule="nonzero"/></clipPath><clipPath id="5b81a9ee5f"><path d="M 10.703125 0.605469 C 5.109375 0.605469 0.578125 5.136719 0.578125 10.730469 C 0.578125 16.320312 5.109375 20.855469 10.703125 20.855469 C 16.296875 20.855469 20.828125 16.320312 20.828125 10.730469 C 20.828125 5.136719 16.296875 0.605469 10.703125 0.605469 Z M 10.703125 0.605469 " clip-rule="nonzero"/></clipPath><clipPath id="62d7c91feb"><rect x="0" width="21" y="0" height="22"/></clipPath><mask id="dd84d121ce"><g filter="url(#1ea9d2a2b2)"><rect x="-37.5" width="450" fill="#000000" y="-37.499999" height="449.999989" fill-opacity="0.7"/></g></mask><clipPath id="ad793fa73f"><path d="M 0.59375 0.816406 L 20.84375 0.816406 L 20.84375 21.066406 L 0.59375 21.066406 Z M 0.59375 0.816406 " clip-rule="nonzero"/></clipPath><clipPath id="e081bc0fe1"><path d="M 10.71875 0.816406 C 5.125 0.816406 0.59375 5.347656 0.59375 10.941406 C 0.59375 16.53125 5.125 21.066406 10.71875 21.066406 C 16.308594 21.066406 20.84375 16.53125 20.84375 10.941406 C 20.84375 5.347656 16.308594 0.816406 10.71875 0.816406 Z M 10.71875 0.816406 " clip-rule="nonzero"/></clipPath><clipPath id="f4c8736357"><rect x="0" width="21" y="0" height="22"/></clipPath><mask id="6ba9111b79"><g filter="url(#1ea9d2a2b2)"><rect x="-37.5" width="450" fill="#000000" y="-37.499999" height="449.999989" fill-opacity="0.8"/></g></mask><clipPath id="300d4da59e"><path d="M 1.199219 0.71875 L 21.449219 0.71875 L 21.449219 20.96875 L 1.199219 20.96875 Z M 1.199219 0.71875 " clip-rule="nonzero"/></clipPath><clipPath id="24a72219fc"><path d="M 11.324219 0.71875 C 5.730469 0.71875 1.199219 5.253906 1.199219 10.84375 C 1.199219 16.4375 5.730469 20.96875 11.324219 20.96875 C 16.914062 20.96875 21.449219 16.4375 21.449219 10.84375 C 21.449219 5.253906 16.914062 0.71875 11.324219 0.71875 Z M 11.324219 0.71875 " clip-rule="nonzero"/></clipPath><clipPath id="e0b435c370"><rect x="0" width="22" y="0" height="22"/></clipPath><mask id="3313d13c37"><g filter="url(#1ea9d2a2b2)"><rect x="-37.5" width="450" fill="#000000" y="-37.499999" height="449.999989" fill-opacity="0.9"/></g></mask><clipPath id="66c3367ef5"><path d="M 1.074219 0.449219 L 20.574219 0.449219 L 20.574219 19.949219 L 1.074219 19.949219 Z M 1.074219 0.449219 " clip-rule="nonzero"/></clipPath><clipPath id="26670f4620"><path d="M 10.824219 0.449219 C 5.4375 0.449219 1.074219 4.816406 1.074219 10.199219 C 1.074219 15.585938 5.4375 19.949219 10.824219 19.949219 C 16.207031 19.949219 20.574219 15.585938 20.574219 10.199219 C 20.574219 4.816406 16.207031 0.449219 10.824219 0.449219 Z M 10.824219 0.449219 " clip-rule="nonzero"/></clipPath><clipPath id="677c1ca0eb"><rect x="0" width="21" y="0" height="21"/></clipPath><clipPath id="a0eb410d19"><path d="M 307.34375 123.667969 L 326.84375 123.667969 L 326.84375 143.167969 L 307.34375 143.167969 Z M 307.34375 123.667969 " clip-rule="nonzero"/></clipPath><clipPath id="17ebc2b075"><path d="M 317.09375 123.667969 C 311.707031 123.667969 307.34375 128.035156 307.34375 133.417969 C 307.34375 138.804688 311.707031 143.167969 317.09375 143.167969 C 322.476562 143.167969 326.84375 138.804688 326.84375 133.417969 C 326.84375 128.035156 322.476562 123.667969 317.09375 123.667969 Z M 317.09375 123.667969 " clip-rule="nonzero"/></clipPath><clipPath id="e7230e1a4e"><path d="M 275.84375 80.554688 L 295.34375 80.554688 L 295.34375 100.054688 L 275.84375 100.054688 Z M 275.84375 80.554688 " clip-rule="nonzero"/></clipPath><clipPath id="ed5fa4681e"><path d="M 285.59375 80.554688 C 280.207031 80.554688 275.84375 84.921875 275.84375 90.304688 C 275.84375 95.691406 280.207031 100.054688 285.59375 100.054688 C 290.976562 100.054688 295.34375 95.691406 295.34375 90.304688 C 295.34375 84.921875 290.976562 80.554688 285.59375 80.554688 Z M 285.59375 80.554688 " clip-rule="nonzero"/></clipPath><clipPath id="1f21c8c388"><path d="M 230.011719 52.953125 L 249.511719 52.953125 L 249.511719 72.453125 L 230.011719 72.453125 Z M 230.011719 52.953125 " clip-rule="nonzero"/></clipPath><clipPath id="e9320a1d15"><path d="M 239.761719 52.953125 C 234.378906 52.953125 230.011719 57.316406 230.011719 62.703125 C 230.011719 68.085938 234.378906 72.453125 239.761719 72.453125 C 245.148438 72.453125 249.511719 68.085938 249.511719 62.703125 C 249.511719 57.316406 245.148438 52.953125 239.761719 52.953125 Z M 239.761719 52.953125 " clip-rule="nonzero"/></clipPath><clipPath id="737b93b7cb"><path d="M 178.664062 43.203125 L 197.414062 43.203125 L 197.414062 61.953125 L 178.664062 61.953125 Z M 178.664062 43.203125 " clip-rule="nonzero"/></clipPath><clipPath id="0fff6e88ba"><path d="M 188.039062 43.203125 C 182.859375 43.203125 178.664062 47.398438 178.664062 52.578125 C 178.664062 57.753906 182.859375 61.953125 188.039062 61.953125 C 193.214844 61.953125 197.414062 57.753906 197.414062 52.578125 C 197.414062 47.398438 193.214844 43.203125 188.039062 43.203125 Z M 188.039062 43.203125 " clip-rule="nonzero"/></clipPath><clipPath id="de25cf58d6"><path d="M 127.941406 56.703125 L 146.691406 56.703125 L 146.691406 75.453125 L 127.941406 75.453125 Z M 127.941406 56.703125 " clip-rule="nonzero"/></clipPath><clipPath id="5bd393e02a"><path d="M 137.316406 56.703125 C 132.136719 56.703125 127.941406 60.898438 127.941406 66.078125 C 127.941406 71.253906 132.136719 75.453125 137.316406 75.453125 C 142.492188 75.453125 146.691406 71.253906 146.691406 66.078125 C 146.691406 60.898438 142.492188 56.703125 137.316406 56.703125 Z M 137.316406 56.703125 " clip-rule="nonzero"/></clipPath><clipPath id="123d66805a"><path d="M 85.730469 85.257812 L 104.480469 85.257812 L 104.480469 104.007812 L 85.730469 104.007812 Z M 85.730469 85.257812 " clip-rule="nonzero"/></clipPath><clipPath id="c2e6a4a9cc"><path d="M 95.105469 85.257812 C 89.929688 85.257812 85.730469 89.453125 85.730469 94.632812 C 85.730469 99.808594 89.929688 104.007812 95.105469 104.007812 C 100.285156 104.007812 104.480469 99.808594 104.480469 94.632812 C 104.480469 89.453125 100.285156 85.257812 95.105469 85.257812 Z M 95.105469 85.257812 " clip-rule="nonzero"/></clipPath><clipPath id="ac03a75a82"><path d="M 60.707031 129.628906 L 79.457031 129.628906 L 79.457031 148.378906 L 60.707031 148.378906 Z M 60.707031 129.628906 " clip-rule="nonzero"/></clipPath><clipPath id="36805b9d66"><path d="M 70.082031 129.628906 C 64.90625 129.628906 60.707031 133.828125 60.707031 139.003906 C 60.707031 144.183594 64.90625 148.378906 70.082031 148.378906 C 75.261719 148.378906 79.457031 144.183594 79.457031 139.003906 C 79.457031 133.828125 75.261719 129.628906 70.082031 129.628906 Z M 70.082031 129.628906 " clip-rule="nonzero"/></clipPath><clipPath id="06f21bd323"><path d="M 53.144531 178.949219 L 70.394531 178.949219 L 70.394531 196.199219 L 53.144531 196.199219 Z M 53.144531 178.949219 " clip-rule="nonzero"/></clipPath><clipPath id="42e6f0d4eb"><path d="M 61.769531 178.949219 C 57.003906 178.949219 53.144531 182.8125 53.144531 187.574219 C 53.144531 192.339844 57.003906 196.199219 61.769531 196.199219 C 66.53125 196.199219 70.394531 192.339844 70.394531 187.574219 C 70.394531 182.8125 66.53125 178.949219 61.769531 178.949219 Z M 61.769531 178.949219 " clip-rule="nonzero"/></clipPath><clipPath id="a422d3e819"><path d="M 65.808594 225.59375 L 83.058594 225.59375 L 83.058594 242.84375 L 65.808594 242.84375 Z M 65.808594 225.59375 " clip-rule="nonzero"/></clipPath><clipPath id="38eb3b5066"><path d="M 74.433594 225.59375 C 69.671875 225.59375 65.808594 229.457031 65.808594 234.21875 C 65.808594 238.984375 69.671875 242.84375 74.433594 242.84375 C 79.199219 242.84375 83.058594 238.984375 83.058594 234.21875 C 83.058594 229.457031 79.199219 225.59375 74.433594 225.59375 Z M 74.433594 225.59375 " clip-rule="nonzero"/></clipPath><clipPath id="200f8b3ea7"><path d="M 95.855469 262.210938 L 113.105469 262.210938 L 113.105469 279.460938 L 95.855469 279.460938 Z M 95.855469 262.210938 " clip-rule="nonzero"/></clipPath><clipPath id="9b1104fbfd"><path d="M 104.480469 262.210938 C 99.71875 262.210938 95.855469 266.074219 95.855469 270.835938 C 95.855469 275.601562 99.71875 279.460938 104.480469 279.460938 C 109.246094 279.460938 113.105469 275.601562 113.105469 270.835938 C 113.105469 266.074219 109.246094 262.210938 104.480469 262.210938 Z M 104.480469 262.210938 " clip-rule="nonzero"/></clipPath><clipPath id="7592656c4f"><path d="M 136.566406 283 L 153.816406 283 L 153.816406 300.25 L 136.566406 300.25 Z M 136.566406 283 " clip-rule="nonzero"/></clipPath><clipPath id="416603cc98"><path d="M 145.191406 283 C 140.425781 283 136.566406 286.859375 136.566406 291.625 C 136.566406 296.386719 140.425781 300.25 145.191406 300.25 C 149.953125 300.25 153.816406 296.386719 153.816406 291.625 C 153.816406 286.859375 149.953125 283 145.191406 283 Z M 145.191406 283 " clip-rule="nonzero"/></clipPath><clipPath id="98ecb9b7b2"><path d="M 178.875 287.566406 L 196.125 287.566406 L 196.125 304.816406 L 178.875 304.816406 Z M 178.875 287.566406 " clip-rule="nonzero"/></clipPath><clipPath id="2ab51e3a75"><path d="M 187.5 287.566406 C 182.738281 287.566406 178.875 291.425781 178.875 296.191406 C 178.875 300.953125 182.738281 304.816406 187.5 304.816406 C 192.261719 304.816406 196.125 300.953125 196.125 296.191406 C 196.125 291.425781 192.261719 287.566406 187.5 287.566406 Z M 187.5 287.566406 " clip-rule="nonzero"/></clipPath><clipPath id="474e8e687a"><path d="M 220.125 276.902344 L 235.875 276.902344 L 235.875 292.652344 L 220.125 292.652344 Z M 220.125 276.902344 " clip-rule="nonzero"/></clipPath><clipPath id="e4586dd64b"><path d="M 228 276.902344 C 223.652344 276.902344 220.125 280.425781 220.125 284.777344 C 220.125 289.125 223.652344 292.652344 228 292.652344 C 232.347656 292.652344 235.875 289.125 235.875 284.777344 C 235.875 280.425781 232.347656 276.902344 228 276.902344 Z M 228 276.902344 " clip-rule="nonzero"/></clipPath><clipPath id="bf4af8a749"><path d="M 252.203125 252.96875 L 267.953125 252.96875 L 267.953125 268.71875 L 252.203125 268.71875 Z M 252.203125 252.96875 " clip-rule="nonzero"/></clipPath><clipPath id="c0479d5306"><path d="M 260.078125 252.96875 C 255.730469 252.96875 252.203125 256.496094 252.203125 260.84375 C 252.203125 265.195312 255.730469 268.71875 260.078125 268.71875 C 264.425781 268.71875 267.953125 265.195312 267.953125 260.84375 C 267.953125 256.496094 264.425781 252.96875 260.078125 252.96875 Z M 260.078125 252.96875 " clip-rule="nonzero"/></clipPath><clipPath id="e76d84b5c6"><path d="M 273.59375 218.46875 L 289.34375 218.46875 L 289.34375 234.21875 L 273.59375 234.21875 Z M 273.59375 218.46875 " clip-rule="nonzero"/></clipPath><clipPath id="655ca55e16"><path d="M 281.46875 218.46875 C 277.117188 218.46875 273.59375 221.996094 273.59375 226.34375 C 273.59375 230.695312 277.117188 234.21875 281.46875 234.21875 C 285.816406 234.21875 289.34375 230.695312 289.34375 226.34375 C 289.34375 221.996094 285.816406 218.46875 281.46875 218.46875 Z M 281.46875 218.46875 " clip-rule="nonzero"/></clipPath><clipPath id="df92a8df50"><path d="M 280.71875 180.074219 L 295.71875 180.074219 L 295.71875 195.074219 L 280.71875 195.074219 Z M 280.71875 180.074219 " clip-rule="nonzero"/></clipPath><clipPath id="e834a5cff0"><path d="M 288.21875 180.074219 C 284.074219 180.074219 280.71875 183.433594 280.71875 187.574219 C 280.71875 191.714844 284.074219 195.074219 288.21875 195.074219 C 292.359375 195.074219 295.71875 191.714844 295.71875 187.574219 C 295.71875 183.433594 292.359375 180.074219 288.21875 180.074219 Z M 288.21875 180.074219 " clip-rule="nonzero"/></clipPath><clipPath id="08147e7aa0"><path d="M 272.09375 141.824219 L 287.09375 141.824219 L 287.09375 156.824219 L 272.09375 156.824219 Z M 272.09375 141.824219 " clip-rule="nonzero"/></clipPath><clipPath id="f008139937"><path d="M 279.59375 141.824219 C 275.449219 141.824219 272.09375 145.183594 272.09375 149.324219 C 272.09375 153.464844 275.449219 156.824219 279.59375 156.824219 C 283.734375 156.824219 287.09375 153.464844 287.09375 149.324219 C 287.09375 145.183594 283.734375 141.824219 279.59375 141.824219 Z M 279.59375 141.824219 " clip-rule="nonzero"/></clipPath><clipPath id="2568a8fe1b"><path d="M 249.511719 112.0625 L 264.511719 112.0625 L 264.511719 127.0625 L 249.511719 127.0625 Z M 249.511719 112.0625 " clip-rule="nonzero"/></clipPath><clipPath id="92ce271b9c"><path d="M 257.011719 112.0625 C 252.871094 112.0625 249.511719 115.417969 249.511719 119.5625 C 249.511719 123.703125 252.871094 127.0625 257.011719 127.0625 C 261.152344 127.0625 264.511719 123.703125 264.511719 119.5625 C 264.511719 115.417969 261.152344 112.0625 257.011719 112.0625 Z M 257.011719 112.0625 " clip-rule="nonzero"/></clipPath><clipPath id="a190667644"><path d="M 216.640625 92.496094 L 231.640625 92.496094 L 231.640625 107.496094 L 216.640625 107.496094 Z M 216.640625 92.496094 " clip-rule="nonzero"/></clipPath><clipPath id="33be80726c"><path d="M 224.140625 92.496094 C 220 92.496094 216.640625 95.855469 216.640625 99.996094 C 216.640625 104.136719 220 107.496094 224.140625 107.496094 C 228.28125 107.496094 231.640625 104.136719 231.640625 99.996094 C 231.640625 95.855469 228.28125 92.496094 224.140625 92.496094 Z M 224.140625 92.496094 " clip-rule="nonzero"/></clipPath><clipPath id="8043c7f265"><path d="M 180.914062 86.757812 L 195.164062 86.757812 L 195.164062 101.007812 L 180.914062 101.007812 Z M 180.914062 86.757812 " clip-rule="nonzero"/></clipPath><clipPath id="0704cdf8c2"><path d="M 188.039062 86.757812 C 184.101562 86.757812 180.914062 89.945312 180.914062 93.882812 C 180.914062 97.816406 184.101562 101.007812 188.039062 101.007812 C 191.972656 101.007812 195.164062 97.816406 195.164062 93.882812 C 195.164062 89.945312 191.972656 86.757812 188.039062 86.757812 Z M 188.039062 86.757812 " clip-rule="nonzero"/></clipPath><clipPath id="4aea310493"><path d="M 147.066406 97.8125 L 160.566406 97.8125 L 160.566406 111.3125 L 147.066406 111.3125 Z M 147.066406 97.8125 " clip-rule="nonzero"/></clipPath><clipPath id="77ac83a1dc"><path d="M 153.816406 97.8125 C 150.085938 97.8125 147.066406 100.832031 147.066406 104.5625 C 147.066406 108.289062 150.085938 111.3125 153.816406 111.3125 C 157.542969 111.3125 160.566406 108.289062 160.566406 104.5625 C 160.566406 100.832031 157.542969 97.8125 153.816406 97.8125 Z M 153.816406 97.8125 " clip-rule="nonzero"/></clipPath><clipPath id="4d54300448"><path d="M 122.316406 121.0625 L 135.816406 121.0625 L 135.816406 134.5625 L 122.316406 134.5625 Z M 122.316406 121.0625 " clip-rule="nonzero"/></clipPath><clipPath id="d6c817e359"><path d="M 129.066406 121.0625 C 125.335938 121.0625 122.316406 124.082031 122.316406 127.8125 C 122.316406 131.539062 125.335938 134.5625 129.066406 134.5625 C 132.792969 134.5625 135.816406 131.539062 135.816406 127.8125 C 135.816406 124.082031 132.792969 121.0625 129.066406 121.0625 Z M 129.066406 121.0625 " clip-rule="nonzero"/></clipPath><clipPath id="d93b506369"><path d="M 108.195312 150.804688 L 121.695312 150.804688 L 121.695312 164.304688 L 108.195312 164.304688 Z M 108.195312 150.804688 " clip-rule="nonzero"/></clipPath><clipPath id="04bd4fc34e"><path d="M 114.945312 150.804688 C 111.21875 150.804688 108.195312 153.828125 108.195312 157.554688 C 108.195312 161.28125 111.21875 164.304688 114.945312 164.304688 C 118.671875 164.304688 121.695312 161.28125 121.695312 157.554688 C 121.695312 153.828125 118.671875 150.804688 114.945312 150.804688 Z M 114.945312 150.804688 " clip-rule="nonzero"/></clipPath><clipPath id="84e0fa210b"><path d="M 107.652344 181.535156 L 120.402344 181.535156 L 120.402344 194.285156 L 107.652344 194.285156 Z M 107.652344 181.535156 " clip-rule="nonzero"/></clipPath><clipPath id="01fab70f31"><path d="M 114.027344 181.535156 C 110.503906 181.535156 107.652344 184.390625 107.652344 187.910156 C 107.652344 191.429688 110.503906 194.285156 114.027344 194.285156 C 117.546875 194.285156 120.402344 191.429688 120.402344 187.910156 C 120.402344 184.390625 117.546875 181.535156 114.027344 181.535156 Z M 114.027344 181.535156 " clip-rule="nonzero"/></clipPath><mask id="60906e1a76"><g filter="url(#1ea9d2a2b2)"><rect x="-37.5" width="450" fill="#000000" y="-37.499999" height="449.999989" fill-opacity="0.9"/></g></mask><clipPath id="ca7acbb2bc"><path d="M 0.316406 0.96875 L 13.066406 0.96875 L 13.066406 13.71875 L 0.316406 13.71875 Z M 0.316406 0.96875 " clip-rule="nonzero"/></clipPath><clipPath id="895a6cc8aa"><path d="M 6.691406 0.96875 C 3.167969 0.96875 0.316406 3.824219 0.316406 7.34375 C 0.316406 10.867188 3.167969 13.71875 6.691406 13.71875 C 10.210938 13.71875 13.066406 10.867188 13.066406 7.34375 C 13.066406 3.824219 10.210938 0.96875 6.691406 0.96875 Z M 6.691406 0.96875 " clip-rule="nonzero"/></clipPath><clipPath id="3fadcdce8f"><rect x="0" width="14" y="0" height="14"/></clipPath><mask id="3e9d17fb83"><g filter="url(#1ea9d2a2b2)"><rect x="-37.5" width="450" fill="#000000" y="-37.499999" height="449.999989" fill-opacity="0.8"/></g></mask><clipPath id="7f370cfd8f"><path d="M 1.191406 1.09375 L 13.941406 1.09375 L 13.941406 13.84375 L 1.191406 13.84375 Z M 1.191406 1.09375 " clip-rule="nonzero"/></clipPath><clipPath id="b3d4d48268"><path d="M 7.566406 1.09375 C 4.042969 1.09375 1.191406 3.949219 1.191406 7.46875 C 1.191406 10.992188 4.042969 13.84375 7.566406 13.84375 C 11.085938 13.84375 13.941406 10.992188 13.941406 7.46875 C 13.941406 3.949219 11.085938 1.09375 7.566406 1.09375 Z M 7.566406 1.09375 " clip-rule="nonzero"/></clipPath><clipPath id="1c7befc63b"><rect x="0" width="15" y="0" height="14"/></clipPath><mask id="f4b5ccd8f6"><g filter="url(#1ea9d2a2b2)"><rect x="-37.5" width="450" fill="#000000" y="-37.499999" height="449.999989" fill-opacity="0.7"/></g></mask><clipPath id="70ce63378e"><path d="M 0.542969 0.34375 L 13.292969 0.34375 L 13.292969 13.09375 L 0.542969 13.09375 Z M 0.542969 0.34375 " clip-rule="nonzero"/></clipPath><clipPath id="bee47ec76a"><path d="M 6.917969 0.34375 C 3.398438 0.34375 0.542969 3.199219 0.542969 6.71875 C 0.542969 10.242188 3.398438 13.09375 6.917969 13.09375 C 10.4375 13.09375 13.292969 10.242188 13.292969 6.71875 C 13.292969 3.199219 10.4375 0.34375 6.917969 0.34375 Z M 6.917969 0.34375 " clip-rule="nonzero"/></clipPath><clipPath id="d45a92d3b6"><rect x="0" width="14" y="0" height="14"/></clipPath><mask id="b7ebb21bbf"><g filter="url(#1ea9d2a2b2)"><rect x="-37.5" width="450" fill="#000000" y="-37.499999" height="449.999989" fill-opacity="0.7"/></g></mask><clipPath id="84bd14aa05"><path d="M 0.414062 0.316406 L 12.414062 0.316406 L 12.414062 12.316406 L 0.414062 12.316406 Z M 0.414062 0.316406 " clip-rule="nonzero"/></clipPath><clipPath id="77a278f006"><path d="M 6.414062 0.316406 C 3.097656 0.316406 0.414062 3.003906 0.414062 6.316406 C 0.414062 9.628906 3.097656 12.316406 6.414062 12.316406 C 9.726562 12.316406 12.414062 9.628906 12.414062 6.316406 C 12.414062 3.003906 9.726562 0.316406 6.414062 0.316406 Z M 6.414062 0.316406 " clip-rule="nonzero"/></clipPath><clipPath id="768bc1b875"><rect x="0" width="13" y="0" height="13"/></clipPath><mask id="6445722eec"><g filter="url(#1ea9d2a2b2)"><rect x="-37.5" width="450" fill="#000000" y="-37.499999" height="449.999989" fill-opacity="0.7"/></g></mask><clipPath id="7cc024c272"><path d="M 0.640625 0.34375 L 11.890625 0.34375 L 11.890625 11.59375 L 0.640625 11.59375 Z M 0.640625 0.34375 " clip-rule="nonzero"/></clipPath><clipPath id="316f49f3d6"><path d="M 6.265625 0.34375 C 3.160156 0.34375 0.640625 2.863281 0.640625 5.96875 C 0.640625 9.074219 3.160156 11.59375 6.265625 11.59375 C 9.371094 11.59375 11.890625 9.074219 11.890625 5.96875 C 11.890625 2.863281 9.371094 0.34375 6.265625 0.34375 Z M 6.265625 0.34375 " clip-rule="nonzero"/></clipPath><clipPath id="966c8e7180"><rect x="0" width="12" y="0" height="12"/></clipPath><mask id="dcba7dfeaf"><g filter="url(#1ea9d2a2b2)"><rect x="-37.5" width="450" fill="#000000" y="-37.499999" height="449.999989" fill-opacity="0.7"/></g></mask><clipPath id="73822d72ed"><path d="M 0.875 0.71875 L 11.375 0.71875 L 11.375 11.21875 L 0.875 11.21875 Z M 0.875 0.71875 " clip-rule="nonzero"/></clipPath><clipPath id="fa4cb3cfdf"><path d="M 6.125 0.71875 C 3.226562 0.71875 0.875 3.070312 0.875 5.96875 C 0.875 8.867188 3.226562 11.21875 6.125 11.21875 C 9.023438 11.21875 11.375 8.867188 11.375 5.96875 C 11.375 3.070312 9.023438 0.71875 6.125 0.71875 Z M 6.125 0.71875 " clip-rule="nonzero"/></clipPath><clipPath id="ca28e7918b"><rect x="0" width="12" y="0" height="12"/></clipPath><mask id="e700341a75"><g filter="url(#1ea9d2a2b2)"><rect x="-37.5" width="450" fill="#000000" y="-37.499999" height="449.999989" fill-opacity="0.6"/></g></mask><clipPath id="d58c29835a"><path d="M 0.75 0.34375 L 10.5 0.34375 L 10.5 10.09375 L 0.75 10.09375 Z M 0.75 0.34375 " clip-rule="nonzero"/></clipPath><clipPath id="2d90bf8a53"><path d="M 5.625 0.34375 C 2.933594 0.34375 0.75 2.527344 0.75 5.21875 C 0.75 7.910156 2.933594 10.09375 5.625 10.09375 C 8.316406 10.09375 10.5 7.910156 10.5 5.21875 C 10.5 2.527344 8.316406 0.34375 5.625 0.34375 Z M 5.625 0.34375 " clip-rule="nonzero"/></clipPath><clipPath id="58a59035e9"><rect x="0" width="11" y="0" height="11"/></clipPath><mask id="dd1daf294b"><g filter="url(#1ea9d2a2b2)"><rect x="-37.5" width="450" fill="#000000" y="-37.499999" height="449.999989" fill-opacity="0.5"/></g></mask><clipPath id="e7d6822c82"><path d="M 0.578125 1.199219 L 9.578125 1.199219 L 9.578125 10.199219 L 0.578125 10.199219 Z M 0.578125 1.199219 " clip-rule="nonzero"/></clipPath><clipPath id="51556cf7a3"><path d="M 5.078125 1.199219 C 2.59375 1.199219 0.578125 3.214844 0.578125 5.699219 C 0.578125 8.183594 2.59375 10.199219 5.078125 10.199219 C 7.5625 10.199219 9.578125 8.183594 9.578125 5.699219 C 9.578125 3.214844 7.5625 1.199219 5.078125 1.199219 Z M 5.078125 1.199219 " clip-rule="nonzero"/></clipPath><clipPath id="d4cd970470"><rect x="0" width="10" y="0" height="11"/></clipPath><mask id="bbbaf2d6d4"><g filter="url(#1ea9d2a2b2)"><rect x="-37.5" width="450" fill="#000000" y="-37.499999" height="449.999989" fill-opacity="0.5"/></g></mask><clipPath id="7fbc4ff2b8"><path d="M 1 2 L 24 2 L 24 25 L 1 25 Z M 1 2 " clip-rule="nonzero"/></clipPath><clipPath id="1cdac3e22c"><path d="M 25.5 22.167969 L 4.113281 26.132812 L 0.152344 4.746094 L 21.539062 0.785156 Z M 25.5 22.167969 " clip-rule="nonzero"/></clipPath><clipPath id="4d5f90a0bd"><path d="M 14.808594 24.152344 C 20.710938 23.054688 24.613281 17.382812 23.519531 11.476562 C 22.425781 5.570312 16.75 1.671875 10.84375 2.765625 C 4.9375 3.859375 1.039062 9.535156 2.132812 15.441406 C 3.226562 21.34375 8.902344 25.246094 14.808594 24.152344 Z M 14.808594 24.152344 " clip-rule="nonzero"/></clipPath><clipPath id="621657e8d0"><rect x="0" width="26" y="0" height="27"/></clipPath><mask id="cf8b61ecff"><g filter="url(#1ea9d2a2b2)"><rect x="-37.5" width="450" fill="#000000" y="-37.499999" height="449.999989" fill-opacity="0.5"/></g></mask><clipPath id="2d151c367e"><path d="M 2 1 L 25 1 L 25 24 L 2 24 Z M 2 1 " clip-rule="nonzero"/></clipPath><clipPath id="efde6c9f50"><path d="M 26.242188 21.492188 L 4.855469 25.457031 L 0.890625 4.070312 L 22.277344 0.105469 Z M 26.242188 21.492188 " clip-rule="nonzero"/></clipPath><clipPath id="eff4a5a99e"><path d="M 15.546875 23.472656 C 21.453125 22.378906 25.355469 16.707031 24.257812 10.800781 C 23.164062 4.894531 17.492188 0.996094 11.585938 2.089844 C 5.679688 3.183594 1.777344 8.859375 2.875 14.761719 C 3.96875 20.667969 9.640625 24.570312 15.546875 23.472656 Z M 15.546875 23.472656 " clip-rule="nonzero"/></clipPath><clipPath id="7903d20b1d"><rect x="0" width="27" y="0" height="26"/></clipPath><mask id="ca24f26fa6"><g filter="url(#1ea9d2a2b2)"><rect x="-37.5" width="450" fill="#000000" y="-37.499999" height="449.999989" fill-opacity="0.6"/></g></mask><clipPath id="0e675e5cc7"><path d="M 2 2 L 25 2 L 25 25 L 2 25 Z M 2 2 " clip-rule="nonzero"/></clipPath><clipPath id="05060f7e5e"><path d="M 25.953125 22.238281 L 4.710938 26.175781 L 0.777344 4.9375 L 22.015625 1 Z M 25.953125 22.238281 " clip-rule="nonzero"/></clipPath><clipPath id="c0a10c2d33"><path d="M 15.332031 24.207031 C 21.195312 23.121094 25.070312 17.484375 23.984375 11.621094 C 22.898438 5.753906 17.261719 1.882812 11.394531 2.96875 C 5.53125 4.054688 1.65625 9.691406 2.746094 15.554688 C 3.832031 21.421875 9.464844 25.292969 15.332031 24.207031 Z M 15.332031 24.207031 " clip-rule="nonzero"/></clipPath><clipPath id="7edffdfd4e"><rect x="0" width="26" y="0" height="27"/></clipPath><mask id="bd7c653bcf"><g filter="url(#1ea9d2a2b2)"><rect x="-37.5" width="450" fill="#000000" y="-37.499999" height="449.999989" fill-opacity="0.6"/></g></mask><clipPath id="a7207d6eca"><path d="M 2 2 L 24 2 L 24 24 L 2 24 Z M 2 2 " clip-rule="nonzero"/></clipPath><clipPath id="ad882f82d6"><path d="M 25.460938 21.695312 L 4.222656 25.632812 L 0.285156 4.394531 L 21.523438 0.457031 Z M 25.460938 21.695312 " clip-rule="nonzero"/></clipPath><clipPath id="38315b3ae7"><path d="M 14.839844 23.664062 C 20.707031 22.578125 24.578125 16.941406 23.492188 11.078125 C 22.40625 5.210938 16.769531 1.339844 10.90625 2.425781 C 5.039062 3.511719 1.167969 9.148438 2.253906 15.011719 C 3.339844 20.878906 8.976562 24.75 14.839844 23.664062 Z M 14.839844 23.664062 " clip-rule="nonzero"/></clipPath><clipPath id="7b9cbf6d27"><rect x="0" width="26" y="0" height="26"/></clipPath><mask id="096de23361"><g filter="url(#1ea9d2a2b2)"><rect x="-37.5" width="450" fill="#000000" y="-37.499999" height="449.999989" fill-opacity="0.7"/></g></mask><clipPath id="309b0a343a"><path d="M 2 2 L 23 2 L 23 23 L 2 23 Z M 2 2 " clip-rule="nonzero"/></clipPath><clipPath id="191a7b57fc"><path d="M 24.128906 20.394531 L 4.21875 24.082031 L 0.527344 4.171875 L 20.4375 0.480469 Z M 24.128906 20.394531 " clip-rule="nonzero"/></clipPath><clipPath id="73eb57adc0"><path d="M 14.171875 22.238281 C 19.671875 21.21875 23.304688 15.933594 22.285156 10.4375 C 21.265625 4.9375 15.980469 1.308594 10.484375 2.328125 C 4.984375 3.34375 1.355469 8.628906 2.371094 14.125 C 3.390625 19.625 8.675781 23.257812 14.171875 22.238281 Z M 14.171875 22.238281 " clip-rule="nonzero"/></clipPath><clipPath id="4105602f5b"><rect x="0" width="25" y="0" height="25"/></clipPath><mask id="9a03974298"><g filter="url(#1ea9d2a2b2)"><rect x="-37.5" width="450" fill="#000000" y="-37.499999" height="449.999989" fill-opacity="0.7"/></g></mask><clipPath id="d046b37d69"><path d="M 2 1 L 23 1 L 23 23 L 2 23 Z M 2 1 " clip-rule="nonzero"/></clipPath><clipPath id="85e1a5804b"><path d="M 24.214844 20.121094 L 4.304688 23.808594 L 0.613281 3.898438 L 20.527344 0.207031 Z M 24.214844 20.121094 " clip-rule="nonzero"/></clipPath><clipPath id="bd2744f785"><path d="M 14.257812 21.964844 C 19.757812 20.945312 23.390625 15.664062 22.371094 10.164062 C 21.351562 4.664062 16.070312 1.035156 10.570312 2.054688 C 5.070312 3.070312 1.441406 8.355469 2.460938 13.855469 C 3.476562 19.351562 8.761719 22.984375 14.257812 21.964844 Z M 14.257812 21.964844 " clip-rule="nonzero"/></clipPath><clipPath id="8b86d78394"><rect x="0" width="25" y="0" height="24"/></clipPath><mask id="37b244a487"><g filter="url(#1ea9d2a2b2)"><rect x="-37.5" width="450" fill="#000000" y="-37.499999" height="449.999989" fill-opacity="0.7"/></g></mask><clipPath id="12e67d74e8"><path d="M 2 1 L 24 1 L 24 23 L 2 23 Z M 2 1 " clip-rule="nonzero"/></clipPath><clipPath id="f977a27920"><path d="M 24.707031 20.042969 L 4.796875 23.730469 L 1.105469 3.820312 L 21.019531 0.128906 Z M 24.707031 20.042969 " clip-rule="nonzero"/></clipPath><clipPath id="740f52ea34"><path d="M 14.753906 21.886719 C 20.25 20.867188 23.882812 15.582031 22.863281 10.085938 C 21.84375 4.585938 16.5625 0.957031 11.0625 1.976562 C 5.566406 2.992188 1.933594 8.277344 2.953125 13.773438 C 3.972656 19.273438 9.253906 22.90625 14.753906 21.886719 Z M 14.753906 21.886719 " clip-rule="nonzero"/></clipPath><clipPath id="ca4add832c"><rect x="0" width="25" y="0" height="24"/></clipPath><mask id="5b33690689"><g filter="url(#1ea9d2a2b2)"><rect x="-37.5" width="450" fill="#000000" y="-37.499999" height="449.999989" fill-opacity="0.8"/></g></mask><clipPath id="74e88ee7a2"><path d="M 1 2 L 23 2 L 23 23 L 1 23 Z M 1 2 " clip-rule="nonzero"/></clipPath><clipPath id="a488354398"><path d="M 23.875 20.3125 L 3.964844 24.003906 L 0.273438 4.089844 L 20.183594 0.402344 Z M 23.875 20.3125 " clip-rule="nonzero"/></clipPath><clipPath id="16ef522e18"><path d="M 13.917969 22.15625 C 19.417969 21.136719 23.046875 15.855469 22.03125 10.355469 C 21.011719 4.859375 15.726562 1.226562 10.230469 2.246094 C 4.730469 3.265625 1.101562 8.546875 2.117188 14.046875 C 3.136719 19.542969 8.421875 23.175781 13.917969 22.15625 Z M 13.917969 22.15625 " clip-rule="nonzero"/></clipPath><clipPath id="92534569f6"><rect x="0" width="24" y="0" height="25"/></clipPath><mask id="10df127c91"><g filter="url(#1ea9d2a2b2)"><rect x="-37.5" width="450" fill="#000000" y="-37.499999" height="449.999989" fill-opacity="0.9"/></g></mask><clipPath id="ee5f721472"><path d="M 2 2 L 22 2 L 22 23 L 2 23 Z M 2 2 " clip-rule="nonzero"/></clipPath><clipPath id="eab9f1c80e"><path d="M 23.203125 20.09375 L 4.027344 23.644531 L 0.476562 4.472656 L 19.648438 0.917969 Z M 23.203125 20.09375 " clip-rule="nonzero"/></clipPath><clipPath id="b5b45bbc6f"><path d="M 13.613281 21.867188 C 18.910156 20.886719 22.40625 15.800781 21.425781 10.503906 C 20.445312 5.210938 15.355469 1.714844 10.0625 2.695312 C 4.765625 3.675781 1.269531 8.761719 2.25 14.058594 C 3.234375 19.351562 8.320312 22.847656 13.613281 21.867188 Z M 13.613281 21.867188 " clip-rule="nonzero"/></clipPath><clipPath id="f2ba92ed06"><rect x="0" width="24" y="0" height="24"/></clipPath><clipPath id="fdee42ea6b"><path d="M 61 253 L 81 253 L 81 274 L 61 274 Z M 61 253 " clip-rule="nonzero"/></clipPath><clipPath id="eb037dee2c"><path d="M 82.5 271.46875 L 63.328125 275.023438 L 59.773438 255.847656 L 78.949219 252.296875 Z M 82.5 271.46875 " clip-rule="nonzero"/></clipPath><clipPath id="dc193f84a4"><path d="M 72.914062 273.246094 C 78.210938 272.265625 81.707031 267.179688 80.726562 261.882812 C 79.742188 256.589844 74.65625 253.089844 69.363281 254.074219 C 64.066406 255.054688 60.570312 260.140625 61.550781 265.4375 C 62.53125 270.730469 67.621094 274.226562 72.914062 273.246094 Z M 72.914062 273.246094 " clip-rule="nonzero"/></clipPath><clipPath id="04e63ff7af"><path d="M 100 290 L 120 290 L 120 311 L 100 311 Z M 100 290 " clip-rule="nonzero"/></clipPath><clipPath id="142fba7bb0"><path d="M 121.328125 308.121094 L 102.15625 311.675781 L 98.601562 292.503906 L 117.777344 288.949219 Z M 121.328125 308.121094 " clip-rule="nonzero"/></clipPath><clipPath id="5f6275fa36"><path d="M 111.742188 309.898438 C 117.039062 308.917969 120.535156 303.832031 119.554688 298.535156 C 118.570312 293.242188 113.484375 289.746094 108.191406 290.726562 C 102.894531 291.707031 99.398438 296.792969 100.378906 302.089844 C 101.359375 307.382812 106.449219 310.878906 111.742188 309.898438 Z M 111.742188 309.898438 " clip-rule="nonzero"/></clipPath><clipPath id="9fa275df20"><path d="M 150 309 L 170 309 L 170 329 L 150 329 Z M 150 309 " clip-rule="nonzero"/></clipPath><clipPath id="c16469f2b5"><path d="M 171.421875 326.914062 L 152.25 330.46875 L 148.695312 311.292969 L 167.871094 307.742188 Z M 171.421875 326.914062 " clip-rule="nonzero"/></clipPath><clipPath id="8939c357e3"><path d="M 161.835938 328.691406 C 167.128906 327.710938 170.628906 322.621094 169.644531 317.328125 C 168.664062 312.03125 163.578125 308.535156 158.28125 309.515625 C 152.988281 310.5 149.492188 315.585938 150.472656 320.878906 C 151.453125 326.175781 156.539062 329.671875 161.835938 328.691406 Z M 161.835938 328.691406 " clip-rule="nonzero"/></clipPath><clipPath id="db0aafafc5"><path d="M 203 310 L 223 310 L 223 330 L 203 330 Z M 203 310 " clip-rule="nonzero"/></clipPath><clipPath id="525026a814"><path d="M 223.6875 327.144531 L 205.25 330.5625 L 201.835938 312.125 L 220.273438 308.710938 Z M 223.6875 327.144531 " clip-rule="nonzero"/></clipPath><clipPath id="986502e0c0"><path d="M 214.46875 328.855469 C 219.5625 327.910156 222.921875 323.019531 221.980469 317.925781 C 221.035156 312.835938 216.144531 309.472656 211.054688 310.417969 C 205.960938 311.359375 202.601562 316.253906 203.542969 321.34375 C 204.488281 326.433594 209.378906 329.796875 214.46875 328.855469 Z M 214.46875 328.855469 " clip-rule="nonzero"/></clipPath><clipPath id="ce612a86a6"><path d="M 250 287 L 270 287 L 270 307 L 250 307 Z M 250 287 " clip-rule="nonzero"/></clipPath><clipPath id="7318f5e581"><path d="M 271.101562 304.628906 L 252.664062 308.046875 L 249.25 289.609375 L 267.683594 286.195312 Z M 271.101562 304.628906 " clip-rule="nonzero"/></clipPath><clipPath id="a9f23dfd00"><path d="M 261.882812 306.335938 C 266.976562 305.394531 270.335938 300.503906 269.394531 295.410156 C 268.449219 290.320312 263.558594 286.957031 258.46875 287.902344 C 253.375 288.84375 250.015625 293.738281 250.957031 298.828125 C 251.902344 303.917969 256.792969 307.28125 261.882812 306.335938 Z M 261.882812 306.335938 " clip-rule="nonzero"/></clipPath><clipPath id="0cbd40a83f"><path d="M 287 251 L 306 251 L 306 271 L 287 271 Z M 287 251 " clip-rule="nonzero"/></clipPath><clipPath id="0b8c9c034c"><path d="M 307.402344 268.863281 L 288.964844 272.277344 L 285.550781 253.839844 L 303.984375 250.425781 Z M 307.402344 268.863281 " clip-rule="nonzero"/></clipPath><clipPath id="bec37b8fb6"><path d="M 298.183594 270.570312 C 303.273438 269.625 306.636719 264.734375 305.695312 259.644531 C 304.75 254.550781 299.859375 251.191406 294.765625 252.132812 C 289.675781 253.078125 286.3125 257.96875 287.257812 263.058594 C 288.199219 268.152344 293.09375 271.511719 298.183594 270.570312 Z M 298.183594 270.570312 " clip-rule="nonzero"/></clipPath><clipPath id="1a63c48dba"><path d="M 303 203 L 323 203 L 323 223 L 303 223 Z M 303 203 " clip-rule="nonzero"/></clipPath><clipPath id="237e51da50"><path d="M 323.921875 220.671875 L 305.484375 224.089844 L 302.066406 205.652344 L 320.503906 202.234375 Z M 323.921875 220.671875 " clip-rule="nonzero"/></clipPath><clipPath id="7f0fdebe5b"><path d="M 314.703125 222.378906 C 319.792969 221.4375 323.15625 216.546875 322.210938 211.453125 C 321.269531 206.363281 316.375 203 311.285156 203.945312 C 306.195312 204.886719 302.832031 209.78125 303.777344 214.871094 C 304.71875 219.960938 309.609375 223.324219 314.703125 222.378906 Z M 314.703125 222.378906 " clip-rule="nonzero"/></clipPath><clipPath id="2791129214"><path d="M 303 155 L 321 155 L 321 173 L 303 173 Z M 303 155 " clip-rule="nonzero"/></clipPath><clipPath id="15e8e138a2"><path d="M 322.371094 170.800781 L 305.410156 173.941406 L 302.269531 156.980469 L 319.230469 153.839844 Z M 322.371094 170.800781 " clip-rule="nonzero"/></clipPath><clipPath id="170c9acbde"><path d="M 313.890625 172.371094 C 318.574219 171.503906 321.667969 167.003906 320.800781 162.320312 C 319.933594 157.636719 315.433594 154.542969 310.75 155.410156 C 306.066406 156.277344 302.972656 160.777344 303.839844 165.460938 C 304.707031 170.144531 309.207031 173.238281 313.890625 172.371094 Z M 313.890625 172.371094 " clip-rule="nonzero"/></clipPath><clipPath id="a3518abad6"><path d="M 282 111 L 300 111 L 300 129 L 282 129 Z M 282 111 " clip-rule="nonzero"/></clipPath><clipPath id="398881b202"><path d="M 301.417969 127.242188 L 284.457031 130.386719 L 281.316406 113.425781 L 298.277344 110.28125 Z M 301.417969 127.242188 " clip-rule="nonzero"/></clipPath><clipPath id="49248b5362"><path d="M 292.9375 128.816406 C 297.621094 127.945312 300.714844 123.445312 299.847656 118.761719 C 298.980469 114.078125 294.480469 110.984375 289.796875 111.851562 C 285.113281 112.722656 282.019531 117.222656 282.886719 121.90625 C 283.753906 126.589844 288.253906 129.683594 292.9375 128.816406 Z M 292.9375 128.816406 " clip-rule="nonzero"/></clipPath><clipPath id="9ae3a4ee41"><path d="M 246 81 L 264 81 L 264 99 L 246 99 Z M 246 81 " clip-rule="nonzero"/></clipPath><clipPath id="ede64c10ee"><path d="M 265.203125 96.714844 L 248.242188 99.855469 L 245.101562 82.894531 L 262.0625 79.75 Z M 265.203125 96.714844 " clip-rule="nonzero"/></clipPath><clipPath id="50a397c47e"><path d="M 256.722656 98.285156 C 261.40625 97.417969 264.5 92.917969 263.632812 88.234375 C 262.765625 83.546875 258.265625 80.457031 253.582031 81.324219 C 248.898438 82.191406 245.804688 86.691406 246.671875 91.375 C 247.539062 96.058594 252.039062 99.152344 256.722656 98.285156 Z M 256.722656 98.285156 " clip-rule="nonzero"/></clipPath><clipPath id="d6f70d3fad"><path d="M 202 68 L 220 68 L 220 86 L 202 86 Z M 202 68 " clip-rule="nonzero"/></clipPath><clipPath id="7532ffbe96"><path d="M 221.390625 83.691406 L 204.429688 86.835938 L 201.285156 69.875 L 218.246094 66.730469 Z M 221.390625 83.691406 " clip-rule="nonzero"/></clipPath><clipPath id="01a60ba577"><path d="M 212.910156 85.265625 C 217.59375 84.394531 220.6875 79.894531 219.816406 75.210938 C 218.949219 70.527344 214.449219 67.433594 209.765625 68.300781 C 205.082031 69.171875 201.988281 73.671875 202.855469 78.355469 C 203.722656 83.039062 208.226562 86.132812 212.910156 85.265625 Z M 212.910156 85.265625 " clip-rule="nonzero"/></clipPath><clipPath id="0aa1ad8889"><path d="M 160 71 L 178 71 L 178 89 L 160 89 Z M 160 71 " clip-rule="nonzero"/></clipPath><clipPath id="7607c63c06"><path d="M 178.957031 86.910156 L 161.996094 90.054688 L 158.851562 73.089844 L 175.8125 69.949219 Z M 178.957031 86.910156 " clip-rule="nonzero"/></clipPath><clipPath id="c43e7a3749"><path d="M 170.476562 88.480469 C 175.160156 87.613281 178.253906 83.113281 177.382812 78.429688 C 176.515625 73.746094 172.015625 70.652344 167.332031 71.519531 C 162.648438 72.386719 159.554688 76.886719 160.421875 81.570312 C 161.289062 86.257812 165.792969 89.347656 170.476562 88.480469 Z M 170.476562 88.480469 " clip-rule="nonzero"/></clipPath><clipPath id="2038895006"><path d="M 123 90 L 140 90 L 140 107 L 123 107 Z M 123 90 " clip-rule="nonzero"/></clipPath><clipPath id="27ef4848b0"><path d="M 140.339844 104.910156 L 124.851562 107.78125 L 121.984375 92.292969 L 137.46875 89.425781 Z M 140.339844 104.910156 " clip-rule="nonzero"/></clipPath><clipPath id="a84beac580"><path d="M 132.597656 106.347656 C 136.871094 105.554688 139.695312 101.445312 138.90625 97.167969 C 138.113281 92.890625 134.003906 90.066406 129.726562 90.859375 C 125.449219 91.652344 122.625 95.761719 123.417969 100.039062 C 124.210938 104.3125 128.320312 107.140625 132.597656 106.347656 Z M 132.597656 106.347656 " clip-rule="nonzero"/></clipPath><clipPath id="80742b18f6"><path d="M 96 120 L 112 120 L 112 136 L 96 136 Z M 96 120 " clip-rule="nonzero"/></clipPath><clipPath id="6cc4b6467c"><path d="M 113.160156 134.289062 L 97.671875 137.15625 L 94.800781 121.671875 L 110.289062 118.800781 Z M 113.160156 134.289062 " clip-rule="nonzero"/></clipPath><clipPath id="284b3b96f5"><path d="M 105.414062 135.722656 C 109.691406 134.929688 112.515625 130.820312 111.722656 126.542969 C 110.929688 122.269531 106.820312 119.445312 102.546875 120.238281 C 98.269531 121.027344 95.445312 125.136719 96.238281 129.414062 C 97.03125 133.691406 101.140625 136.515625 105.414062 135.722656 Z M 105.414062 135.722656 " clip-rule="nonzero"/></clipPath><clipPath id="8410c50984"><path d="M 81 157 L 98 157 L 98 174 L 81 174 Z M 81 157 " clip-rule="nonzero"/></clipPath><clipPath id="0d1481bd07"><path d="M 98.414062 172.109375 L 82.925781 174.976562 L 80.058594 159.492188 L 95.542969 156.621094 Z M 98.414062 172.109375 " clip-rule="nonzero"/></clipPath><clipPath id="f99b0331c0"><path d="M 90.671875 173.542969 C 94.945312 172.75 97.769531 168.640625 96.980469 164.363281 C 96.1875 160.089844 92.078125 157.261719 87.800781 158.054688 C 83.523438 158.847656 80.699219 162.957031 81.492188 167.234375 C 82.285156 171.511719 86.394531 174.335938 90.671875 173.542969 Z M 90.671875 173.542969 " clip-rule="nonzero"/></clipPath><clipPath id="1d28a1462f"><path d="M 82 197 L 98 197 L 98 213 L 82 213 Z M 82 197 " clip-rule="nonzero"/></clipPath><clipPath id="d9bc7d48d7"><path d="M 98.402344 211.15625 L 83.65625 213.890625 L 80.921875 199.140625 L 95.671875 196.410156 Z M 98.402344 211.15625 " clip-rule="nonzero"/></clipPath><clipPath id="4d7c6daff7"><path d="M 91.027344 212.523438 C 95.101562 211.769531 97.792969 207.855469 97.035156 203.785156 C 96.28125 199.710938 92.367188 197.019531 88.296875 197.777344 C 84.222656 198.53125 81.53125 202.445312 82.289062 206.515625 C 83.042969 210.589844 86.957031 213.277344 91.027344 212.523438 Z M 91.027344 212.523438 " clip-rule="nonzero"/></clipPath><clipPath id="1799ce53f9"><path d="M 97 233 L 113 233 L 113 249 L 97 249 Z M 97 233 " clip-rule="nonzero"/></clipPath><clipPath id="04f5e5d266"><path d="M 113.851562 247.195312 L 99.105469 249.929688 L 96.371094 235.179688 L 111.121094 232.445312 Z M 113.851562 247.195312 " clip-rule="nonzero"/></clipPath><clipPath id="2cf72d6d5b"><path d="M 106.480469 248.5625 C 110.550781 247.808594 113.242188 243.894531 112.488281 239.820312 C 111.730469 235.75 107.820312 233.058594 103.746094 233.8125 C 99.671875 234.570312 96.984375 238.480469 97.738281 242.554688 C 98.492188 246.628906 102.40625 249.316406 106.480469 248.5625 Z M 106.480469 248.5625 " clip-rule="nonzero"/></clipPath><clipPath id="0cf25603dd"><path d="M 125 258 L 141 258 L 141 274 L 125 274 Z M 125 258 " clip-rule="nonzero"/></clipPath><clipPath id="06babf7578"><path d="M 141.480469 272.347656 L 126.730469 275.082031 L 123.996094 260.332031 L 138.746094 257.597656 Z M 141.480469 272.347656 " clip-rule="nonzero"/></clipPath><clipPath id="05cd5892f7"><path d="M 134.105469 273.714844 C 138.175781 272.960938 140.867188 269.046875 140.113281 264.972656 C 139.359375 260.898438 135.445312 258.210938 131.371094 258.964844 C 127.296875 259.71875 124.609375 263.632812 125.363281 267.707031 C 126.117188 271.777344 130.03125 274.46875 134.105469 273.714844 Z M 134.105469 273.714844 " clip-rule="nonzero"/></clipPath><clipPath id="f5519dcaa7"><path d="M 161 272 L 177 272 L 177 288 L 161 288 Z M 161 272 " clip-rule="nonzero"/></clipPath><clipPath id="62541b61ce"><path d="M 177.363281 285.597656 L 162.617188 288.328125 L 159.882812 273.578125 L 174.632812 270.847656 Z M 177.363281 285.597656 " clip-rule="nonzero"/></clipPath><clipPath id="44b72f22ca"><path d="M 169.992188 286.960938 C 174.0625 286.207031 176.753906 282.292969 176 278.222656 C 175.242188 274.148438 171.332031 271.457031 167.257812 272.214844 C 163.183594 272.96875 160.496094 276.882812 161.25 280.953125 C 162.003906 285.027344 165.917969 287.71875 169.992188 286.960938 Z M 169.992188 286.960938 " clip-rule="nonzero"/></clipPath><clipPath id="41aedcdba7"><path d="M 198 271 L 213 271 L 213 287 L 198 287 Z M 198 271 " clip-rule="nonzero"/></clipPath><clipPath id="3dbd2d6901"><path d="M 213.539062 284.730469 L 199.527344 287.324219 L 196.933594 273.3125 L 210.941406 270.71875 Z M 213.539062 284.730469 " clip-rule="nonzero"/></clipPath><clipPath id="694bbe09bb"><path d="M 206.535156 286.027344 C 210.402344 285.308594 212.957031 281.59375 212.242188 277.722656 C 211.523438 273.855469 207.808594 271.296875 203.9375 272.015625 C 200.070312 272.734375 197.511719 276.449219 198.230469 280.320312 C 198.945312 284.1875 202.664062 286.746094 206.535156 286.027344 Z M 206.535156 286.027344 " clip-rule="nonzero"/></clipPath><clipPath id="3328425fad"><path d="M 230 255 L 244 255 L 244 270 L 230 270 Z M 230 255 " clip-rule="nonzero"/></clipPath><clipPath id="46b846d676"><path d="M 244.804688 267.691406 L 231.53125 270.152344 L 229.074219 256.878906 L 242.347656 254.417969 Z M 244.804688 267.691406 " clip-rule="nonzero"/></clipPath><clipPath id="8c7bf2862c"><path d="M 238.167969 268.921875 C 241.835938 268.242188 244.257812 264.722656 243.578125 261.054688 C 242.898438 257.390625 239.375 254.96875 235.710938 255.648438 C 232.042969 256.328125 229.625 259.851562 230.300781 263.515625 C 230.980469 267.179688 234.503906 269.601562 238.167969 268.921875 Z M 238.167969 268.921875 " clip-rule="nonzero"/></clipPath><clipPath id="62312b18f7"><path d="M 250 228 L 264 228 L 264 242 L 250 242 Z M 250 228 " clip-rule="nonzero"/></clipPath><clipPath id="205d5b8f5a"><path d="M 264.90625 240.324219 L 251.632812 242.78125 L 249.171875 229.507812 L 262.445312 227.046875 Z M 264.90625 240.324219 " clip-rule="nonzero"/></clipPath><clipPath id="f8fe5464be"><path d="M 258.269531 241.550781 C 261.933594 240.871094 264.355469 237.351562 263.675781 233.683594 C 262.996094 230.019531 259.476562 227.597656 255.808594 228.277344 C 252.144531 228.957031 249.722656 232.480469 250.402344 236.144531 C 251.082031 239.8125 254.601562 242.230469 258.269531 241.550781 Z M 258.269531 241.550781 " clip-rule="nonzero"/></clipPath><clipPath id="83c6ca2f5b"><path d="M 258 196 L 273 196 L 273 210 L 258 210 Z M 258 196 " clip-rule="nonzero"/></clipPath><clipPath id="ee52419e96"><path d="M 273.371094 208.503906 L 260.097656 210.964844 L 257.636719 197.691406 L 270.910156 195.230469 Z M 273.371094 208.503906 " clip-rule="nonzero"/></clipPath><clipPath id="26db9fcbf1"><path d="M 266.734375 209.734375 C 270.398438 209.054688 272.820312 205.53125 272.140625 201.867188 C 271.460938 198.203125 267.941406 195.78125 264.273438 196.460938 C 260.609375 197.140625 258.1875 200.660156 258.867188 204.328125 C 259.546875 207.992188 263.070312 210.414062 266.734375 209.734375 Z M 266.734375 209.734375 " clip-rule="nonzero"/></clipPath><clipPath id="ed0fa99b94"><path d="M 254 166 L 268 166 L 268 180 L 254 180 Z M 254 166 " clip-rule="nonzero"/></clipPath><clipPath id="9291b97911"><path d="M 268.308594 178.1875 L 255.769531 180.511719 L 253.449219 167.976562 L 265.984375 165.652344 Z M 268.308594 178.1875 " clip-rule="nonzero"/></clipPath><clipPath id="800a43d54e"><path d="M 262.039062 179.351562 C 265.5 178.710938 267.785156 175.382812 267.144531 171.921875 C 266.503906 168.457031 263.175781 166.171875 259.714844 166.8125 C 256.253906 167.457031 253.96875 170.78125 254.609375 174.242188 C 255.25 177.707031 258.578125 179.992188 262.039062 179.351562 Z M 262.039062 179.351562 " clip-rule="nonzero"/></clipPath><mask id="19fdedaf0e"><g filter="url(#1ea9d2a2b2)"><rect x="-37.5" width="450" fill="#000000" y="-37.499999" height="449.999989" fill-opacity="0.9"/></g></mask><clipPath id="9e6d1236e6"><path d="M 1 1 L 14 1 L 14 15 L 1 15 Z M 1 1 " clip-rule="nonzero"/></clipPath><clipPath id="1486e64779"><path d="M 14.96875 12.777344 L 2.433594 15.097656 L 0.109375 2.5625 L 12.648438 0.238281 Z M 14.96875 12.777344 " clip-rule="nonzero"/></clipPath><clipPath id="8dab507c3d"><path d="M 8.703125 13.9375 C 12.164062 13.296875 14.449219 9.96875 13.808594 6.507812 C 13.167969 3.046875 9.839844 0.757812 6.378906 1.402344 C 2.917969 2.042969 0.632812 5.367188 1.273438 8.832031 C 1.914062 12.292969 5.242188 14.578125 8.703125 13.9375 Z M 8.703125 13.9375 " clip-rule="nonzero"/></clipPath><clipPath id="95e0cf1bf8"><rect x="0" width="16" y="0" height="16"/></clipPath><mask id="003a4c37bc"><g filter="url(#1ea9d2a2b2)"><rect x="-37.5" width="450" fill="#000000" y="-37.499999" height="449.999989" fill-opacity="0.8"/></g></mask><clipPath id="9e2a711475"><path d="M 1 1 L 15 1 L 15 15 L 1 15 Z M 1 1 " clip-rule="nonzero"/></clipPath><clipPath id="7594886629"><path d="M 15.347656 13.09375 L 2.808594 15.417969 L 0.488281 2.882812 L 13.023438 0.558594 Z M 15.347656 13.09375 " clip-rule="nonzero"/></clipPath><clipPath id="00b7cc60bd"><path d="M 9.078125 14.257812 C 12.539062 13.617188 14.828125 10.289062 14.183594 6.828125 C 13.542969 3.367188 10.21875 1.078125 6.753906 1.71875 C 3.292969 2.363281 1.007812 5.6875 1.648438 9.148438 C 2.289062 12.613281 5.617188 14.898438 9.078125 14.257812 Z M 9.078125 14.257812 " clip-rule="nonzero"/></clipPath><clipPath id="dc3caaa8b6"><rect x="0" width="16" y="0" height="16"/></clipPath><mask id="c594f61499"><g filter="url(#1ea9d2a2b2)"><rect x="-37.5" width="450" fill="#000000" y="-37.499999" height="449.999989" fill-opacity="0.7"/></g></mask><clipPath id="0c077503c3"><path d="M 1 1 L 15 1 L 15 15 L 1 15 Z M 1 1 " clip-rule="nonzero"/></clipPath><clipPath id="7ed3cdd065"><path d="M 15.351562 13.472656 L 2.816406 15.792969 L 0.492188 3.257812 L 13.03125 0.933594 Z M 15.351562 13.472656 " clip-rule="nonzero"/></clipPath><clipPath id="658ee56c4d"><path d="M 9.085938 14.632812 C 12.546875 13.992188 14.832031 10.664062 14.191406 7.203125 C 13.550781 3.742188 10.222656 1.453125 6.761719 2.097656 C 3.300781 2.738281 1.011719 6.0625 1.65625 9.527344 C 2.296875 12.988281 5.621094 15.273438 9.085938 14.632812 Z M 9.085938 14.632812 " clip-rule="nonzero"/></clipPath><clipPath id="d43db68a04"><rect x="0" width="16" y="0" height="16"/></clipPath><mask id="56136b3f9d"><g filter="url(#1ea9d2a2b2)"><rect x="-37.5" width="450" fill="#000000" y="-37.499999" height="449.999989" fill-opacity="0.7"/></g></mask><clipPath id="4024c4cd6a"><path d="M 1 1 L 14 1 L 14 14 L 1 14 Z M 1 1 " clip-rule="nonzero"/></clipPath><clipPath id="27a5b860d2"><path d="M 14.539062 12.0625 L 2.738281 14.25 L 0.554688 2.449219 L 12.351562 0.265625 Z M 14.539062 12.0625 " clip-rule="nonzero"/></clipPath><clipPath id="c816a6e5dd"><path d="M 8.640625 13.15625 C 11.898438 12.554688 14.050781 9.421875 13.445312 6.164062 C 12.84375 2.90625 9.710938 0.753906 6.453125 1.359375 C 3.195312 1.960938 1.042969 5.09375 1.648438 8.351562 C 2.25 11.609375 5.382812 13.761719 8.640625 13.15625 Z M 8.640625 13.15625 " clip-rule="nonzero"/></clipPath><clipPath id="eecfc7215c"><rect x="0" width="15" y="0" height="15"/></clipPath><mask id="df2a988530"><g filter="url(#1ea9d2a2b2)"><rect x="-37.5" width="450" fill="#000000" y="-37.499999" height="449.999989" fill-opacity="0.7"/></g></mask><clipPath id="c271383210"><path d="M 0 1 L 13 1 L 13 14 L 0 14 Z M 0 1 " clip-rule="nonzero"/></clipPath><clipPath id="5d0174957d"><path d="M 13.136719 11.953125 L 2.074219 14 L 0.0234375 2.941406 L 11.085938 0.890625 Z M 13.136719 11.953125 " clip-rule="nonzero"/></clipPath><clipPath id="a06f25e1cb"><path d="M 7.605469 12.976562 C 10.660156 12.410156 12.675781 9.476562 12.113281 6.421875 C 11.546875 3.367188 8.609375 1.347656 5.554688 1.914062 C 2.5 2.480469 0.484375 5.417969 1.050781 8.472656 C 1.617188 11.523438 4.550781 13.542969 7.605469 12.976562 Z M 7.605469 12.976562 " clip-rule="nonzero"/></clipPath><clipPath id="c66837d869"><rect x="0" width="14" y="0" height="15"/></clipPath><mask id="784828a1df"><g filter="url(#1ea9d2a2b2)"><rect x="-37.5" width="450" fill="#000000" y="-37.499999" height="449.999989" fill-opacity="0.7"/></g></mask><clipPath id="72b9705b47"><path d="M 1 1 L 12 1 L 12 13 L 1 13 Z M 1 1 " clip-rule="nonzero"/></clipPath><clipPath id="1172e0b7b9"><path d="M 12.839844 11.289062 L 2.515625 13.203125 L 0.601562 2.878906 L 10.925781 0.964844 Z M 12.839844 11.289062 " clip-rule="nonzero"/></clipPath><clipPath id="b5414fb207"><path d="M 7.675781 12.246094 C 10.527344 11.71875 12.410156 8.980469 11.882812 6.128906 C 11.351562 3.277344 8.613281 1.394531 5.761719 1.921875 C 2.914062 2.449219 1.027344 5.191406 1.558594 8.042969 C 2.085938 10.890625 4.824219 12.773438 7.675781 12.246094 Z M 7.675781 12.246094 " clip-rule="nonzero"/></clipPath><clipPath id="378b2a7add"><rect x="0" width="13" y="0" height="14"/></clipPath><mask id="0428872310"><g filter="url(#1ea9d2a2b2)"><rect x="-37.5" width="450" fill="#000000" y="-37.499999" height="449.999989" fill-opacity="0.6"/></g></mask><clipPath id="a9a7608334"><path d="M 0.0390625 1 L 11 1 L 11 12 L 0.0390625 12 Z M 0.0390625 1 " clip-rule="nonzero"/></clipPath><clipPath id="da86b2a143"><path d="M 11.492188 10.339844 L 1.90625 12.117188 L 0.128906 2.527344 L 9.71875 0.753906 Z M 11.492188 10.339844 " clip-rule="nonzero"/></clipPath><clipPath id="dc26d51b36"><path d="M 6.699219 11.226562 C 9.347656 10.738281 11.09375 8.191406 10.605469 5.546875 C 10.113281 2.898438 7.570312 1.148438 4.921875 1.640625 C 2.277344 2.132812 0.527344 4.675781 1.019531 7.320312 C 1.507812 9.96875 4.050781 11.71875 6.699219 11.226562 Z M 6.699219 11.226562 " clip-rule="nonzero"/></clipPath><clipPath id="d0ea3f3e7e"><rect x="0" width="12" y="0" height="13"/></clipPath><mask id="3b0c902071"><g filter="url(#1ea9d2a2b2)"><rect x="-37.5" width="450" fill="#000000" y="-37.499999" height="449.999989" fill-opacity="0.5"/></g></mask><clipPath id="49592579a9"><path d="M 1 0.238281 L 11 0.238281 L 11 10 L 1 10 Z M 1 0.238281 " clip-rule="nonzero"/></clipPath><clipPath id="80bc5371af"><path d="M 11.515625 9.097656 L 2.664062 10.738281 L 1.027344 1.890625 L 9.875 0.25 Z M 11.515625 9.097656 " clip-rule="nonzero"/></clipPath><clipPath id="4c582e8c5f"><path d="M 7.089844 9.917969 C 9.535156 9.464844 11.148438 7.117188 10.695312 4.671875 C 10.242188 2.230469 7.894531 0.617188 5.449219 1.070312 C 3.007812 1.523438 1.394531 3.871094 1.847656 6.3125 C 2.296875 8.757812 4.648438 10.371094 7.089844 9.917969 Z M 7.089844 9.917969 " clip-rule="nonzero"/></clipPath><clipPath id="79eb5e83f8"><rect x="0" width="12" y="0" height="11"/></clipPath></defs><g mask="url(#dd933020a3)"><g transform="matrix(1, 0, 0, 1, 4, 176)"><g clip-path="url(#f401e00efa)"><g clip-path="url(#c07d4058f2)"><g clip-path="url(#672f541c75)"><path fill="#482b8f" d="M 0.613281 0.699219 L 22.363281 0.699219 L 22.363281 22.449219 L 0.613281 22.449219 Z M 0.613281 0.699219 " fill-opacity="1" fill-rule="nonzero"/></g></g></g></g></g><g mask="url(#b18519fe62)"><g transform="matrix(1, 0, 0, 1, 21, 239)"><g clip-path="url(#d7bb22753b)"><g clip-path="url(#7353efde36)"><g clip-path="url(#afa885be37)"><path fill="#482b8f" d="M 0.707031 0.542969 L 22.457031 0.542969 L 22.457031 22.292969 L 0.707031 22.292969 Z M 0.707031 0.542969 " fill-opacity="1" fill-rule="nonzero"/></g></g></g></g></g><g mask="url(#bf1eff26f8)"><g transform="matrix(1, 0, 0, 1, 59, 292)"><g clip-path="url(#9e46f00c71)"><g clip-path="url(#761e8ba258)"><g clip-path="url(#387df1209d)"><path fill="#482b8f" d="M 0.957031 0.652344 L 22.558594 0.652344 L 22.558594 22.253906 L 0.957031 22.253906 Z M 0.957031 0.652344 " fill-opacity="1" fill-rule="nonzero"/></g></g></g></g></g><g mask="url(#43380cec94)"><g transform="matrix(1, 0, 0, 1, 114, 327)"><g clip-path="url(#c86fc1b898)"><g clip-path="url(#e445f0dfa9)"><g clip-path="url(#2762e2e72c)"><path fill="#482b8f" d="M 0.964844 0.804688 L 22.566406 0.804688 L 22.566406 22.40625 L 0.964844 22.40625 Z M 0.964844 0.804688 " fill-opacity="1" fill-rule="nonzero"/></g></g></g></g></g><g mask="url(#cc58e96266)"><g transform="matrix(1, 0, 0, 1, 177, 335)"><g clip-path="url(#3b97463f3c)"><g clip-path="url(#e981ca6c87)"><g clip-path="url(#26d713be5a)"><path fill="#482b8f" d="M 0.914062 0.714844 L 21.164062 0.714844 L 21.164062 20.964844 L 0.914062 20.964844 Z M 0.914062 0.714844 " fill-opacity="1" fill-rule="nonzero"/></g></g></g></g></g><g mask="url(#66143867dd)"><g transform="matrix(1, 0, 0, 1, 237, 320)"><g clip-path="url(#62d7c91feb)"><g clip-path="url(#6b45e31f7c)"><g clip-path="url(#5b81a9ee5f)"><path fill="#482b8f" d="M 0.578125 0.605469 L 20.828125 0.605469 L 20.828125 20.855469 L 0.578125 20.855469 Z M 0.578125 0.605469 " fill-opacity="1" fill-rule="nonzero"/></g></g></g></g></g><g mask="url(#dd84d121ce)"><g transform="matrix(1, 0, 0, 1, 285, 283)"><g clip-path="url(#f4c8736357)"><g clip-path="url(#ad793fa73f)"><g clip-path="url(#e081bc0fe1)"><path fill="#482b8f" d="M 0.59375 0.816406 L 20.84375 0.816406 L 20.84375 21.066406 L 0.59375 21.066406 Z M 0.59375 0.816406 " fill-opacity="1" fill-rule="nonzero"/></g></g></g></g></g><g mask="url(#6ba9111b79)"><g transform="matrix(1, 0, 0, 1, 312, 232)"><g clip-path="url(#e0b435c370)"><g clip-path="url(#300d4da59e)"><g clip-path="url(#24a72219fc)"><path fill="#482b8f" d="M 1.199219 0.71875 L 21.449219 0.71875 L 21.449219 20.96875 L 1.199219 20.96875 Z M 1.199219 0.71875 " fill-opacity="1" fill-rule="nonzero"/></g></g></g></g></g><g mask="url(#3313d13c37)"><g transform="matrix(1, 0, 0, 1, 320, 177)"><g clip-path="url(#677c1ca0eb)"><g clip-path="url(#66c3367ef5)"><g clip-path="url(#26670f4620)"><path fill="#482b8f" d="M 1.074219 0.449219 L 20.574219 0.449219 L 20.574219 19.949219 L 1.074219 19.949219 Z M 1.074219 0.449219 " fill-opacity="1" fill-rule="nonzero"/></g></g></g></g></g><g clip-path="url(#a0eb410d19)"><g clip-path="url(#17ebc2b075)"><path fill="#482b8f" d="M 307.34375 123.667969 L 326.84375 123.667969 L 326.84375 143.167969 L 307.34375 143.167969 Z M 307.34375 123.667969 " fill-opacity="1" fill-rule="nonzero"/></g></g><g clip-path="url(#e7230e1a4e)"><g clip-path="url(#ed5fa4681e)"><path fill="#482b8f" d="M 275.84375 80.554688 L 295.34375 80.554688 L 295.34375 100.054688 L 275.84375 100.054688 Z M 275.84375 80.554688 " fill-opacity="1" fill-rule="nonzero"/></g></g><g clip-path="url(#1f21c8c388)"><g clip-path="url(#e9320a1d15)"><path fill="#482b8f" d="M 230.011719 52.953125 L 249.511719 52.953125 L 249.511719 72.453125 L 230.011719 72.453125 Z M 230.011719 52.953125 " fill-opacity="1" fill-rule="nonzero"/></g></g><g clip-path="url(#737b93b7cb)"><g clip-path="url(#0fff6e88ba)"><path fill="#482b8f" d="M 178.664062 43.203125 L 197.414062 43.203125 L 197.414062 61.953125 L 178.664062 61.953125 Z M 178.664062 43.203125 " fill-opacity="1" fill-rule="nonzero"/></g></g><g clip-path="url(#de25cf58d6)"><g clip-path="url(#5bd393e02a)"><path fill="#482b8f" d="M 127.941406 56.703125 L 146.691406 56.703125 L 146.691406 75.453125 L 127.941406 75.453125 Z M 127.941406 56.703125 " fill-opacity="1" fill-rule="nonzero"/></g></g><g clip-path="url(#123d66805a)"><g clip-path="url(#c2e6a4a9cc)"><path fill="#482b8f" d="M 85.730469 85.257812 L 104.480469 85.257812 L 104.480469 104.007812 L 85.730469 104.007812 Z M 85.730469 85.257812 " fill-opacity="1" fill-rule="nonzero"/></g></g><g clip-path="url(#ac03a75a82)"><g clip-path="url(#36805b9d66)"><path fill="#482b8f" d="M 60.707031 129.628906 L 79.457031 129.628906 L 79.457031 148.378906 L 60.707031 148.378906 Z M 60.707031 129.628906 " fill-opacity="1" fill-rule="nonzero"/></g></g><g clip-path="url(#06f21bd323)"><g clip-path="url(#42e6f0d4eb)"><path fill="#482b8f" d="M 53.144531 178.949219 L 70.394531 178.949219 L 70.394531 196.199219 L 53.144531 196.199219 Z M 53.144531 178.949219 " fill-opacity="1" fill-rule="nonzero"/></g></g><g clip-path="url(#a422d3e819)"><g clip-path="url(#38eb3b5066)"><path fill="#482b8f" d="M 65.808594 225.59375 L 83.058594 225.59375 L 83.058594 242.84375 L 65.808594 242.84375 Z M 65.808594 225.59375 " fill-opacity="1" fill-rule="nonzero"/></g></g><g clip-path="url(#200f8b3ea7)"><g clip-path="url(#9b1104fbfd)"><path fill="#482b8f" d="M 95.855469 262.210938 L 113.105469 262.210938 L 113.105469 279.460938 L 95.855469 279.460938 Z M 95.855469 262.210938 " fill-opacity="1" fill-rule="nonzero"/></g></g><g clip-path="url(#7592656c4f)"><g clip-path="url(#416603cc98)"><path fill="#482b8f" d="M 136.566406 283 L 153.816406 283 L 153.816406 300.25 L 136.566406 300.25 Z M 136.566406 283 " fill-opacity="1" fill-rule="nonzero"/></g></g><g clip-path="url(#98ecb9b7b2)"><g clip-path="url(#2ab51e3a75)"><path fill="#482b8f" d="M 178.875 287.566406 L 196.125 287.566406 L 196.125 304.816406 L 178.875 304.816406 Z M 178.875 287.566406 " fill-opacity="1" fill-rule="nonzero"/></g></g><g clip-path="url(#474e8e687a)"><g clip-path="url(#e4586dd64b)"><path fill="#482b8f" d="M 220.125 276.902344 L 235.875 276.902344 L 235.875 292.652344 L 220.125 292.652344 Z M 220.125 276.902344 " fill-opacity="1" fill-rule="nonzero"/></g></g><g clip-path="url(#bf4af8a749)"><g clip-path="url(#c0479d5306)"><path fill="#482b8f" d="M 252.203125 252.96875 L 267.953125 252.96875 L 267.953125 268.71875 L 252.203125 268.71875 Z M 252.203125 252.96875 " fill-opacity="1" fill-rule="nonzero"/></g></g><g clip-path="url(#e76d84b5c6)"><g clip-path="url(#655ca55e16)"><path fill="#482b8f" d="M 273.59375 218.46875 L 289.34375 218.46875 L 289.34375 234.21875 L 273.59375 234.21875 Z M 273.59375 218.46875 " fill-opacity="1" fill-rule="nonzero"/></g></g><g clip-path="url(#df92a8df50)"><g clip-path="url(#e834a5cff0)"><path fill="#482b8f" d="M 280.71875 180.074219 L 295.71875 180.074219 L 295.71875 195.074219 L 280.71875 195.074219 Z M 280.71875 180.074219 " fill-opacity="1" fill-rule="nonzero"/></g></g><g clip-path="url(#08147e7aa0)"><g clip-path="url(#f008139937)"><path fill="#482b8f" d="M 272.09375 141.824219 L 287.09375 141.824219 L 287.09375 156.824219 L 272.09375 156.824219 Z M 272.09375 141.824219 " fill-opacity="1" fill-rule="nonzero"/></g></g><g clip-path="url(#2568a8fe1b)"><g clip-path="url(#92ce271b9c)"><path fill="#482b8f" d="M 249.511719 112.0625 L 264.511719 112.0625 L 264.511719 127.0625 L 249.511719 127.0625 Z M 249.511719 112.0625 " fill-opacity="1" fill-rule="nonzero"/></g></g><g clip-path="url(#a190667644)"><g clip-path="url(#33be80726c)"><path fill="#482b8f" d="M 216.640625 92.496094 L 231.640625 92.496094 L 231.640625 107.496094 L 216.640625 107.496094 Z M 216.640625 92.496094 " fill-opacity="1" fill-rule="nonzero"/></g></g><g clip-path="url(#8043c7f265)"><g clip-path="url(#0704cdf8c2)"><path fill="#482b8f" d="M 180.914062 86.757812 L 195.164062 86.757812 L 195.164062 101.007812 L 180.914062 101.007812 Z M 180.914062 86.757812 " fill-opacity="1" fill-rule="nonzero"/></g></g><g clip-path="url(#4aea310493)"><g clip-path="url(#77ac83a1dc)"><path fill="#482b8f" d="M 147.066406 97.8125 L 160.566406 97.8125 L 160.566406 111.3125 L 147.066406 111.3125 Z M 147.066406 97.8125 " fill-opacity="1" fill-rule="nonzero"/></g></g><g clip-path="url(#4d54300448)"><g clip-path="url(#d6c817e359)"><path fill="#482b8f" d="M 122.316406 121.0625 L 135.816406 121.0625 L 135.816406 134.5625 L 122.316406 134.5625 Z M 122.316406 121.0625 " fill-opacity="1" fill-rule="nonzero"/></g></g><g clip-path="url(#d93b506369)"><g clip-path="url(#04bd4fc34e)"><path fill="#482b8f" d="M 108.195312 150.804688 L 121.695312 150.804688 L 121.695312 164.304688 L 108.195312 164.304688 Z M 108.195312 150.804688 " fill-opacity="1" fill-rule="nonzero"/></g></g><g clip-path="url(#84e0fa210b)"><g clip-path="url(#01fab70f31)"><path fill="#482b8f" d="M 107.652344 181.535156 L 120.402344 181.535156 L 120.402344 194.285156 L 107.652344 194.285156 Z M 107.652344 181.535156 " fill-opacity="1" fill-rule="nonzero"/></g></g><g mask="url(#60906e1a76)"><g transform="matrix(1, 0, 0, 1, 116, 207)"><g clip-path="url(#3fadcdce8f)"><g clip-path="url(#ca7acbb2bc)"><g clip-path="url(#895a6cc8aa)"><path fill="#482b8f" d="M 0.316406 0.96875 L 13.066406 0.96875 L 13.066406 13.71875 L 0.316406 13.71875 Z M 0.316406 0.96875 " fill-opacity="1" fill-rule="nonzero"/></g></g></g></g></g><g mask="url(#3e9d17fb83)"><g transform="matrix(1, 0, 0, 1, 132, 229)"><g clip-path="url(#1c7befc63b)"><g clip-path="url(#7f370cfd8f)"><g clip-path="url(#b3d4d48268)"><path fill="#482b8f" d="M 1.191406 1.09375 L 13.941406 1.09375 L 13.941406 13.84375 L 1.191406 13.84375 Z M 1.191406 1.09375 " fill-opacity="1" fill-rule="nonzero"/></g></g></g></g></g><g mask="url(#f4b5ccd8f6)"><g transform="matrix(1, 0, 0, 1, 157, 241)"><g clip-path="url(#d45a92d3b6)"><g clip-path="url(#70ce63378e)"><g clip-path="url(#bee47ec76a)"><path fill="#482b8f" d="M 0.542969 0.34375 L 13.292969 0.34375 L 13.292969 13.09375 L 0.542969 13.09375 Z M 0.542969 0.34375 " fill-opacity="1" fill-rule="nonzero"/></g></g></g></g></g><g mask="url(#b7ebb21bbf)"><g transform="matrix(1, 0, 0, 1, 182, 243)"><g clip-path="url(#768bc1b875)"><g clip-path="url(#84bd14aa05)"><g clip-path="url(#77a278f006)"><path fill="#482b8f" d="M 0.414062 0.316406 L 12.414062 0.316406 L 12.414062 12.316406 L 0.414062 12.316406 Z M 0.414062 0.316406 " fill-opacity="1" fill-rule="nonzero"/></g></g></g></g></g><g mask="url(#6445722eec)"><g transform="matrix(1, 0, 0, 1, 204, 235)"><g clip-path="url(#966c8e7180)"><g clip-path="url(#7cc024c272)"><g clip-path="url(#316f49f3d6)"><path fill="#482b8f" d="M 0.640625 0.34375 L 11.890625 0.34375 L 11.890625 11.59375 L 0.640625 11.59375 Z M 0.640625 0.34375 " fill-opacity="1" fill-rule="nonzero"/></g></g></g></g></g><g mask="url(#dcba7dfeaf)"><g transform="matrix(1, 0, 0, 1, 220, 220)"><g clip-path="url(#ca28e7918b)"><g clip-path="url(#73822d72ed)"><g clip-path="url(#fa4cb3cfdf)"><path fill="#482b8f" d="M 0.875 0.71875 L 11.375 0.71875 L 11.375 11.21875 L 0.875 11.21875 Z M 0.875 0.71875 " fill-opacity="1" fill-rule="nonzero"/></g></g></g></g></g><g mask="url(#e700341a75)"><g transform="matrix(1, 0, 0, 1, 231, 202)"><g clip-path="url(#58a59035e9)"><g clip-path="url(#d58c29835a)"><g clip-path="url(#2d90bf8a53)"><path fill="#482b8f" d="M 0.75 0.34375 L 10.5 0.34375 L 10.5 10.09375 L 0.75 10.09375 Z M 0.75 0.34375 " fill-opacity="1" fill-rule="nonzero"/></g></g></g></g></g><g mask="url(#dd1daf294b)"><g transform="matrix(1, 0, 0, 1, 231, 180)"><g clip-path="url(#d4cd970470)"><g clip-path="url(#e7d6822c82)"><g clip-path="url(#51556cf7a3)"><path fill="#482b8f" d="M 0.578125 1.199219 L 9.578125 1.199219 L 9.578125 10.199219 L 0.578125 10.199219 Z M 0.578125 1.199219 " fill-opacity="1" fill-rule="nonzero"/></g></g></g></g></g><g mask="url(#bbbaf2d6d4)"><g transform="matrix(1, 0, 0, 1, 345, 142)"><g clip-path="url(#621657e8d0)"><g clip-path="url(#7fbc4ff2b8)"><g clip-path="url(#1cdac3e22c)"><g clip-path="url(#4d5f90a0bd)"><path fill="#59a0ff" d="M 25.5 22.167969 L 4.113281 26.132812 L 0.152344 4.746094 L 21.539062 0.785156 Z M 25.5 22.167969 " fill-opacity="1" fill-rule="nonzero"/></g></g></g></g></g></g><g mask="url(#cf8b61ecff)"><g transform="matrix(1, 0, 0, 1, 316, 84)"><g clip-path="url(#7903d20b1d)"><g clip-path="url(#2d151c367e)"><g clip-path="url(#efde6c9f50)"><g clip-path="url(#eff4a5a99e)"><path fill="#59a0ff" d="M 26.242188 21.492188 L 4.855469 25.457031 L 0.890625 4.070312 L 22.277344 0.105469 Z M 26.242188 21.492188 " fill-opacity="1" fill-rule="nonzero"/></g></g></g></g></g></g><g mask="url(#ca24f26fa6)"><g transform="matrix(1, 0, 0, 1, 269, 38)"><g clip-path="url(#7edffdfd4e)"><g clip-path="url(#0e675e5cc7)"><g clip-path="url(#05060f7e5e)"><g clip-path="url(#c0a10c2d33)"><path fill="#59a0ff" d="M 25.953125 22.238281 L 4.710938 26.175781 L 0.777344 4.9375 L 22.015625 1 Z M 25.953125 22.238281 " fill-opacity="1" fill-rule="nonzero"/></g></g></g></g></g></g><g mask="url(#bd7c653bcf)"><g transform="matrix(1, 0, 0, 1, 209, 14)"><g clip-path="url(#7b9cbf6d27)"><g clip-path="url(#a7207d6eca)"><g clip-path="url(#ad882f82d6)"><g clip-path="url(#38315b3ae7)"><path fill="#59a0ff" d="M 25.460938 21.695312 L 4.222656 25.632812 L 0.285156 4.394531 L 21.523438 0.457031 Z M 25.460938 21.695312 " fill-opacity="1" fill-rule="nonzero"/></g></g></g></g></g></g><g mask="url(#096de23361)"><g transform="matrix(1, 0, 0, 1, 147, 19)"><g clip-path="url(#4105602f5b)"><g clip-path="url(#309b0a343a)"><g clip-path="url(#191a7b57fc)"><g clip-path="url(#73eb57adc0)"><path fill="#59a0ff" d="M 24.128906 20.394531 L 4.21875 24.082031 L 0.527344 4.171875 L 20.4375 0.480469 Z M 24.128906 20.394531 " fill-opacity="1" fill-rule="nonzero"/></g></g></g></g></g></g><g mask="url(#9a03974298)"><g transform="matrix(1, 0, 0, 1, 91, 45)"><g clip-path="url(#8b86d78394)"><g clip-path="url(#d046b37d69)"><g clip-path="url(#85e1a5804b)"><g clip-path="url(#bd2744f785)"><path fill="#59a0ff" d="M 24.214844 20.121094 L 4.304688 23.808594 L 0.613281 3.898438 L 20.527344 0.207031 Z M 24.214844 20.121094 " fill-opacity="1" fill-rule="nonzero"/></g></g></g></g></g></g><g mask="url(#37b244a487)"><g transform="matrix(1, 0, 0, 1, 50, 90)"><g clip-path="url(#ca4add832c)"><g clip-path="url(#12e67d74e8)"><g clip-path="url(#f977a27920)"><g clip-path="url(#740f52ea34)"><path fill="#59a0ff" d="M 24.707031 20.042969 L 4.796875 23.730469 L 1.105469 3.820312 L 21.019531 0.128906 Z M 24.707031 20.042969 " fill-opacity="1" fill-rule="nonzero"/></g></g></g></g></g></g><g mask="url(#5b33690689)"><g transform="matrix(1, 0, 0, 1, 33, 145)"><g clip-path="url(#92534569f6)"><g clip-path="url(#74e88ee7a2)"><g clip-path="url(#a488354398)"><g clip-path="url(#16ef522e18)"><path fill="#59a0ff" d="M 23.875 20.3125 L 3.964844 24.003906 L 0.273438 4.089844 L 20.183594 0.402344 Z M 23.875 20.3125 " fill-opacity="1" fill-rule="nonzero"/></g></g></g></g></g></g><g mask="url(#10df127c91)"><g transform="matrix(1, 0, 0, 1, 36, 201)"><g clip-path="url(#f2ba92ed06)"><g clip-path="url(#ee5f721472)"><g clip-path="url(#eab9f1c80e)"><g clip-path="url(#b5b45bbc6f)"><path fill="#59a0ff" d="M 23.203125 20.09375 L 4.027344 23.644531 L 0.476562 4.472656 L 19.648438 0.917969 Z M 23.203125 20.09375 " fill-opacity="1" fill-rule="nonzero"/></g></g></g></g></g></g><g clip-path="url(#fdee42ea6b)"><g clip-path="url(#eb037dee2c)"><g clip-path="url(#dc193f84a4)"><path fill="#59a0ff" d="M 82.5 271.46875 L 63.328125 275.023438 L 59.773438 255.847656 L 78.949219 252.296875 Z M 82.5 271.46875 " fill-opacity="1" fill-rule="nonzero"/></g></g></g><g clip-path="url(#04e63ff7af)"><g clip-path="url(#142fba7bb0)"><g clip-path="url(#5f6275fa36)"><path fill="#59a0ff" d="M 121.328125 308.121094 L 102.15625 311.675781 L 98.601562 292.503906 L 117.777344 288.949219 Z M 121.328125 308.121094 " fill-opacity="1" fill-rule="nonzero"/></g></g></g><g clip-path="url(#9fa275df20)"><g clip-path="url(#c16469f2b5)"><g clip-path="url(#8939c357e3)"><path fill="#59a0ff" d="M 171.421875 326.914062 L 152.25 330.46875 L 148.695312 311.292969 L 167.871094 307.742188 Z M 171.421875 326.914062 " fill-opacity="1" fill-rule="nonzero"/></g></g></g><g clip-path="url(#db0aafafc5)"><g clip-path="url(#525026a814)"><g clip-path="url(#986502e0c0)"><path fill="#59a0ff" d="M 223.6875 327.144531 L 205.25 330.5625 L 201.835938 312.125 L 220.273438 308.710938 Z M 223.6875 327.144531 " fill-opacity="1" fill-rule="nonzero"/></g></g></g><g clip-path="url(#ce612a86a6)"><g clip-path="url(#7318f5e581)"><g clip-path="url(#a9f23dfd00)"><path fill="#59a0ff" d="M 271.101562 304.628906 L 252.664062 308.046875 L 249.25 289.609375 L 267.683594 286.195312 Z M 271.101562 304.628906 " fill-opacity="1" fill-rule="nonzero"/></g></g></g><g clip-path="url(#0cbd40a83f)"><g clip-path="url(#0b8c9c034c)"><g clip-path="url(#bec37b8fb6)"><path fill="#59a0ff" d="M 307.402344 268.863281 L 288.964844 272.277344 L 285.550781 253.839844 L 303.984375 250.425781 Z M 307.402344 268.863281 " fill-opacity="1" fill-rule="nonzero"/></g></g></g><g clip-path="url(#1a63c48dba)"><g clip-path="url(#237e51da50)"><g clip-path="url(#7f0fdebe5b)"><path fill="#59a0ff" d="M 323.921875 220.671875 L 305.484375 224.089844 L 302.066406 205.652344 L 320.503906 202.234375 Z M 323.921875 220.671875 " fill-opacity="1" fill-rule="nonzero"/></g></g></g><g clip-path="url(#2791129214)"><g clip-path="url(#15e8e138a2)"><g clip-path="url(#170c9acbde)"><path fill="#59a0ff" d="M 322.371094 170.800781 L 305.410156 173.941406 L 302.269531 156.980469 L 319.230469 153.839844 Z M 322.371094 170.800781 " fill-opacity="1" fill-rule="nonzero"/></g></g></g><g clip-path="url(#a3518abad6)"><g clip-path="url(#398881b202)"><g clip-path="url(#49248b5362)"><path fill="#59a0ff" d="M 301.417969 127.242188 L 284.457031 130.386719 L 281.316406 113.425781 L 298.277344 110.28125 Z M 301.417969 127.242188 " fill-opacity="1" fill-rule="nonzero"/></g></g></g><g clip-path="url(#9ae3a4ee41)"><g clip-path="url(#ede64c10ee)"><g clip-path="url(#50a397c47e)"><path fill="#59a0ff" d="M 265.203125 96.714844 L 248.242188 99.855469 L 245.101562 82.894531 L 262.0625 79.75 Z M 265.203125 96.714844 " fill-opacity="1" fill-rule="nonzero"/></g></g></g><g clip-path="url(#d6f70d3fad)"><g clip-path="url(#7532ffbe96)"><g clip-path="url(#01a60ba577)"><path fill="#59a0ff" d="M 221.390625 83.691406 L 204.429688 86.835938 L 201.285156 69.875 L 218.246094 66.730469 Z M 221.390625 83.691406 " fill-opacity="1" fill-rule="nonzero"/></g></g></g><g clip-path="url(#0aa1ad8889)"><g clip-path="url(#7607c63c06)"><g clip-path="url(#c43e7a3749)"><path fill="#59a0ff" d="M 178.957031 86.910156 L 161.996094 90.054688 L 158.851562 73.089844 L 175.8125 69.949219 Z M 178.957031 86.910156 " fill-opacity="1" fill-rule="nonzero"/></g></g></g><g clip-path="url(#2038895006)"><g clip-path="url(#27ef4848b0)"><g clip-path="url(#a84beac580)"><path fill="#59a0ff" d="M 140.339844 104.910156 L 124.851562 107.78125 L 121.984375 92.292969 L 137.46875 89.425781 Z M 140.339844 104.910156 " fill-opacity="1" fill-rule="nonzero"/></g></g></g><g clip-path="url(#80742b18f6)"><g clip-path="url(#6cc4b6467c)"><g clip-path="url(#284b3b96f5)"><path fill="#59a0ff" d="M 113.160156 134.289062 L 97.671875 137.15625 L 94.800781 121.671875 L 110.289062 118.800781 Z M 113.160156 134.289062 " fill-opacity="1" fill-rule="nonzero"/></g></g></g><g clip-path="url(#8410c50984)"><g clip-path="url(#0d1481bd07)"><g clip-path="url(#f99b0331c0)"><path fill="#59a0ff" d="M 98.414062 172.109375 L 82.925781 174.976562 L 80.058594 159.492188 L 95.542969 156.621094 Z M 98.414062 172.109375 " fill-opacity="1" fill-rule="nonzero"/></g></g></g><g clip-path="url(#1d28a1462f)"><g clip-path="url(#d9bc7d48d7)"><g clip-path="url(#4d7c6daff7)"><path fill="#59a0ff" d="M 98.402344 211.15625 L 83.65625 213.890625 L 80.921875 199.140625 L 95.671875 196.410156 Z M 98.402344 211.15625 " fill-opacity="1" fill-rule="nonzero"/></g></g></g><g clip-path="url(#1799ce53f9)"><g clip-path="url(#04f5e5d266)"><g clip-path="url(#2cf72d6d5b)"><path fill="#59a0ff" d="M 113.851562 247.195312 L 99.105469 249.929688 L 96.371094 235.179688 L 111.121094 232.445312 Z M 113.851562 247.195312 " fill-opacity="1" fill-rule="nonzero"/></g></g></g><g clip-path="url(#0cf25603dd)"><g clip-path="url(#06babf7578)"><g clip-path="url(#05cd5892f7)"><path fill="#59a0ff" d="M 141.480469 272.347656 L 126.730469 275.082031 L 123.996094 260.332031 L 138.746094 257.597656 Z M 141.480469 272.347656 " fill-opacity="1" fill-rule="nonzero"/></g></g></g><g clip-path="url(#f5519dcaa7)"><g clip-path="url(#62541b61ce)"><g clip-path="url(#44b72f22ca)"><path fill="#59a0ff" d="M 177.363281 285.597656 L 162.617188 288.328125 L 159.882812 273.578125 L 174.632812 270.847656 Z M 177.363281 285.597656 " fill-opacity="1" fill-rule="nonzero"/></g></g></g><g clip-path="url(#41aedcdba7)"><g clip-path="url(#3dbd2d6901)"><g clip-path="url(#694bbe09bb)"><path fill="#59a0ff" d="M 213.539062 284.730469 L 199.527344 287.324219 L 196.933594 273.3125 L 210.941406 270.71875 Z M 213.539062 284.730469 " fill-opacity="1" fill-rule="nonzero"/></g></g></g><g clip-path="url(#3328425fad)"><g clip-path="url(#46b846d676)"><g clip-path="url(#8c7bf2862c)"><path fill="#59a0ff" d="M 244.804688 267.691406 L 231.53125 270.152344 L 229.074219 256.878906 L 242.347656 254.417969 Z M 244.804688 267.691406 " fill-opacity="1" fill-rule="nonzero"/></g></g></g><g clip-path="url(#62312b18f7)"><g clip-path="url(#205d5b8f5a)"><g clip-path="url(#f8fe5464be)"><path fill="#59a0ff" d="M 264.90625 240.324219 L 251.632812 242.78125 L 249.171875 229.507812 L 262.445312 227.046875 Z M 264.90625 240.324219 " fill-opacity="1" fill-rule="nonzero"/></g></g></g><g clip-path="url(#83c6ca2f5b)"><g clip-path="url(#ee52419e96)"><g clip-path="url(#26db9fcbf1)"><path fill="#59a0ff" d="M 273.371094 208.503906 L 260.097656 210.964844 L 257.636719 197.691406 L 270.910156 195.230469 Z M 273.371094 208.503906 " fill-opacity="1" fill-rule="nonzero"/></g></g></g><g clip-path="url(#ed0fa99b94)"><g clip-path="url(#9291b97911)"><g clip-path="url(#800a43d54e)"><path fill="#59a0ff" d="M 268.308594 178.1875 L 255.769531 180.511719 L 253.449219 167.976562 L 265.984375 165.652344 Z M 268.308594 178.1875 " fill-opacity="1" fill-rule="nonzero"/></g></g></g><g mask="url(#19fdedaf0e)"><g transform="matrix(1, 0, 0, 1, 240, 141)"><g clip-path="url(#95e0cf1bf8)"><g clip-path="url(#9e6d1236e6)"><g clip-path="url(#1486e64779)"><g clip-path="url(#8dab507c3d)"><path fill="#59a0ff" d="M 14.96875 12.777344 L 2.433594 15.097656 L 0.109375 2.5625 L 12.648438 0.238281 Z M 14.96875 12.777344 " fill-opacity="1" fill-rule="nonzero"/></g></g></g></g></g></g><g mask="url(#003a4c37bc)"><g transform="matrix(1, 0, 0, 1, 219, 122)"><g clip-path="url(#dc3caaa8b6)"><g clip-path="url(#9e2a711475)"><g clip-path="url(#7594886629)"><g clip-path="url(#00b7cc60bd)"><path fill="#59a0ff" d="M 15.347656 13.09375 L 2.808594 15.417969 L 0.488281 2.882812 L 13.023438 0.558594 Z M 15.347656 13.09375 " fill-opacity="1" fill-rule="nonzero"/></g></g></g></g></g></g><g mask="url(#c594f61499)"><g transform="matrix(1, 0, 0, 1, 193, 115)"><g clip-path="url(#d43db68a04)"><g clip-path="url(#0c077503c3)"><g clip-path="url(#7ed3cdd065)"><g clip-path="url(#658ee56c4d)"><path fill="#59a0ff" d="M 15.351562 13.472656 L 2.816406 15.792969 L 0.492188 3.257812 L 13.03125 0.933594 Z M 15.351562 13.472656 " fill-opacity="1" fill-rule="nonzero"/></g></g></g></g></g></g><g mask="url(#56136b3f9d)"><g transform="matrix(1, 0, 0, 1, 169, 119)"><g clip-path="url(#eecfc7215c)"><g clip-path="url(#4024c4cd6a)"><g clip-path="url(#27a5b860d2)"><g clip-path="url(#c816a6e5dd)"><path fill="#59a0ff" d="M 14.539062 12.0625 L 2.738281 14.25 L 0.554688 2.449219 L 12.351562 0.265625 Z M 14.539062 12.0625 " fill-opacity="1" fill-rule="nonzero"/></g></g></g></g></g></g><g mask="url(#df2a988530)"><g transform="matrix(1, 0, 0, 1, 150, 131)"><g clip-path="url(#c66837d869)"><g clip-path="url(#c271383210)"><g clip-path="url(#5d0174957d)"><g clip-path="url(#a06f25e1cb)"><path fill="#59a0ff" d="M 13.136719 11.953125 L 2.074219 14 L 0.0234375 2.941406 L 11.085938 0.890625 Z M 13.136719 11.953125 " fill-opacity="1" fill-rule="nonzero"/></g></g></g></g></g></g><g mask="url(#784828a1df)"><g transform="matrix(1, 0, 0, 1, 137, 149)"><g clip-path="url(#378b2a7add)"><g clip-path="url(#72b9705b47)"><g clip-path="url(#1172e0b7b9)"><g clip-path="url(#b5414fb207)"><path fill="#59a0ff" d="M 12.839844 11.289062 L 2.515625 13.203125 L 0.601562 2.878906 L 10.925781 0.964844 Z M 12.839844 11.289062 " fill-opacity="1" fill-rule="nonzero"/></g></g></g></g></g></g><g mask="url(#0428872310)"><g transform="matrix(1, 0, 0, 1, 131, 170)"><g clip-path="url(#d0ea3f3e7e)"><g clip-path="url(#a9a7608334)"><g clip-path="url(#da86b2a143)"><g clip-path="url(#dc26d51b36)"><path fill="#59a0ff" d="M 11.492188 10.339844 L 1.90625 12.117188 L 0.128906 2.527344 L 9.71875 0.753906 Z M 11.492188 10.339844 " fill-opacity="1" fill-rule="nonzero"/></g></g></g></g></g></g><g mask="url(#3b0c902071)"><g transform="matrix(1, 0, 0, 1, 135, 192)"><g clip-path="url(#79eb5e83f8)"><g clip-path="url(#49592579a9)"><g clip-path="url(#80bc5371af)"><g clip-path="url(#4c582e8c5f)"><path fill="#59a0ff" d="M 11.515625 9.097656 L 2.664062 10.738281 L 1.027344 1.890625 L 9.875 0.25 Z M 11.515625 9.097656 " fill-opacity="1" fill-rule="nonzero"/></g></g></g></g></g></g></svg>